<svg width="118" height="77" viewBox="0 0 118 77" fill="none" xmlns="http://www.w3.org/2000/svg">
<path d="M52.3373 0.119873C56.768 0.119873 61.1987 0.119873 65.6307 0.119873C66.252 0.28134 66.8667 0.536544 67.4987 0.592277C76.316 1.38401 84.7866 3.51574 92.8013 7.29027C100.245 10.7955 106.824 15.4543 111.677 22.2381C116.423 28.8736 118.208 36.2136 116.488 44.2433C115.079 50.8283 111.392 56.1225 106.541 60.6313C100.385 66.3543 93.1066 70.1824 85.1679 72.7668C70.2959 77.6095 55.1946 78.0897 39.9773 74.7293C30.8107 72.7032 22.2506 69.1756 14.7946 63.3387C7.98397 58.0064 2.85466 51.5288 1.31599 42.7225C1.28399 42.5376 1.06658 42.384 0.935913 42.2147C0.935913 39.7043 0.935913 37.1939 0.935913 34.6824C1.10658 34.3048 1.31335 33.9387 1.44268 33.548C2.10802 31.5245 2.57865 29.4179 3.43865 27.4829C6.34531 20.9559 11.1906 16.0704 16.9946 12.0731C25.916 5.92722 35.916 2.65481 46.5386 1.06521C48.4746 0.776143 50.4053 0.436006 52.3373 0.119873Z" fill="#DF3625"/>
<path d="M51.2054 34.2903C51.2334 31.6381 49.4281 29.3683 47.2534 29.3204C44.9787 29.2709 43.2733 31.0469 43.2507 33.4907C43.224 36.0507 44.9627 38.0871 47.1733 38.0897C49.1987 38.0912 51.1854 36.2199 51.2054 34.2903ZM50.972 42.5001C49.5734 42.7069 48.284 43.0521 46.9934 43.06C41.512 43.0897 37.4934 38.3371 38.1707 32.8631C38.5374 29.8892 39.728 27.4584 42.24 25.7892C45.868 23.3788 51.6894 23.2589 54.5987 28.6433C56.6747 32.4845 57.332 36.6043 56.9186 40.9168C56.6733 43.4897 55.9773 45.9335 54.6173 48.1496C53.0627 50.6797 50.924 52.3788 47.8947 52.746C44.3667 53.1731 41.1547 51.4673 39.1254 48.6679C39.0027 48.5001 39.024 48.0507 39.16 47.9012C40.052 46.9272 40.9986 46.0037 41.9186 45.0559C42.32 44.6417 42.4974 44.9647 42.7147 45.2579C43.5694 46.4141 44.5693 47.3501 46.024 47.7303C47.4186 48.0949 48.556 47.7433 49.4387 46.6417C50.4214 45.4152 50.9067 43.996 50.972 42.5001Z" fill="#FCF9D9"/>
<path d="M85.6867 38.9923C85.728 39.6079 85.7413 40.2294 85.8173 40.8398C86.036 42.5574 86.4333 44.2293 87.3933 45.698C88.816 47.8761 91.5987 47.9751 93.1653 45.9073C93.4813 45.4907 93.724 45.0105 93.9493 44.534C94.6987 42.9507 94.904 41.2371 95.0173 39.5236C95.1933 36.857 94.992 34.2267 93.8066 31.7736C92.924 29.9439 91.5267 29.2267 89.6267 29.5246C88.272 29.7382 87.4707 30.6288 86.8773 31.7683C85.696 34.0444 85.688 36.5193 85.6867 38.9923ZM100.595 39.6131C100.563 41.8231 99.7827 45.0652 97.9773 48.0611C94.4733 53.8788 86.2466 53.883 82.7466 48.095C80.2639 43.9898 79.6066 39.547 80.4413 34.8554C80.8639 32.4751 81.8053 30.3179 83.2013 28.3412C86.7479 23.3163 93.9867 23.3111 97.5653 28.4127C99.5067 31.1783 100.599 34.5923 100.595 39.6131Z" fill="#FCF9D9"/>
<path d="M25.8666 52.3761C23.4919 52.3761 21.1173 52.3829 18.7426 52.3751C17.5253 52.3699 17.5093 52.3579 17.476 51.1157C17.348 46.2668 19.0745 42.4559 23.5025 40.0819C25.0478 39.2537 26.5452 38.3111 27.9666 37.284C29.2039 36.3865 30.0853 35.1679 30.1599 33.535C30.2813 30.8907 27.6772 28.9335 25.1465 29.7502C23.9612 30.1314 23.1199 30.9455 22.3625 31.8855C21.6359 32.7903 21.6293 32.7892 20.6373 32.1444C19.8613 31.6417 19.116 31.086 18.3093 30.6417C17.6173 30.2589 17.644 29.8412 17.992 29.2485C19.3453 26.9455 21.4173 25.574 23.9106 24.9152C30.8026 23.0949 35.4199 28.9663 35.3465 33.9636C35.3159 35.9621 34.6093 37.7293 33.1599 39.0403C31.6359 40.4193 29.9213 41.5923 28.2653 42.8215C27.0653 43.7121 25.7826 44.4933 24.6226 45.4308C24.1506 45.8127 23.9066 46.4793 23.5586 47.0168C24.1386 47.1121 24.7186 47.2824 25.2999 47.2892C27.8066 47.3204 30.3133 47.3021 32.8213 47.3021C34.5426 47.3032 34.2666 47.3179 34.2839 48.836C34.2946 49.7188 34.248 50.6027 34.2973 51.4819C34.336 52.1824 34.0639 52.3944 33.3892 52.3865C30.8826 52.3595 28.3746 52.3751 25.8666 52.3761Z" fill="#FCF9D9"/>
<path d="M68.9667 52.3892C64.8373 52.4349 62.168 50.4116 60.0667 47.396C59.844 47.0783 59.7079 46.8073 60.1413 46.5324C61.2199 45.8491 62.272 45.1225 63.364 44.4647C63.528 44.3657 63.9387 44.4532 64.0933 44.6027C64.6307 45.1183 65.052 45.7605 65.612 46.246C66.9413 47.4012 68.4813 47.746 70.1626 47.1365C71.7759 46.5521 72.4413 45.1183 71.8079 43.5245C71.1546 41.8777 69.8307 41.0991 68.12 40.9688C66.3054 40.8308 66.304 40.8543 66.304 38.9829C66.304 38.2329 66.3253 37.4819 66.3 36.7319C66.2786 36.1668 66.5119 35.9907 67.0693 35.9376C67.9759 35.8491 68.9147 35.7527 69.76 35.4428C70.3827 35.2136 71.012 34.7381 71.4094 34.2032C72.8654 32.2381 71.6933 29.8527 69.1906 29.5923C67.4173 29.4073 66.0333 30.1797 64.872 31.4412C64.6053 31.7319 64.364 32.0521 64.144 32.3813C63.8867 32.7641 63.6267 32.7579 63.264 32.5141C62.2787 31.8516 61.2827 31.2016 60.2707 30.5756C59.828 30.3021 59.8053 30.0272 60.0693 29.6095C63.8306 23.6679 70.4947 23.5767 74.2933 26.2788C78.1307 29.0064 78.4146 34.9064 75.3466 37.7876C74.7333 38.3631 74.7653 38.6548 75.3519 39.2199C78.7506 42.5037 78.252 49.5001 72.32 51.7917C71.7894 51.996 71.236 52.1772 70.6773 52.2668C70.028 52.3709 69.3613 52.3647 68.9667 52.3892Z" fill="#FCF9D9"/>
</svg>
