<svg width="568" height="79" viewBox="0 0 568 79" fill="none" xmlns="http://www.w3.org/2000/svg">
<path d="M50.4814 30.666C50.496 30.5827 50.5107 30.4977 50.5267 30.4112C51.936 22.4873 53.328 14.5535 54.724 6.59254C52.428 6.62734 52.3693 6.88161 51.8893 9.62121C50.9987 14.7003 50.1 19.7779 49.204 24.8565C49.3813 25.6592 49.5587 26.4811 49.7347 27.2773L50.4814 30.666Z" fill="#385DB2"/>
<path d="M41.0693 77.3289C44.976 77.2977 48.884 77.3748 52.7867 77.253C53.3667 77.2347 54.0867 76.4716 54.44 75.8743C54.7227 75.3983 54.7786 74.7847 54.8506 74.1863C53.8826 74.1956 52.948 74.1983 52.092 74.1983L48.5813 74.194C47.7947 74.194 47.008 74.1961 46.1827 74.2024C43.3227 74.2024 42.7533 71.8607 42.5107 70.8612L42.4667 70.6836C41.1453 65.3707 39.8067 60.0617 38.4667 54.7535L36.888 48.4998L36.3933 50.38C35.8093 52.5956 35.2187 54.8582 34.628 57.1128C36.1547 63.1623 37.6853 69.2107 39.1907 75.2655C39.4533 76.3237 39.6093 77.3404 41.0693 77.3289Z" fill="#385DB2"/>
<path d="M24.048 28.2483C24.1147 28.855 24.1693 29.4139 24.2187 29.9436L24.656 28.2467C26.2813 21.9566 27.9373 15.4852 29.5093 9.05082C28.144 9.14975 27.388 9.83882 26.9653 11.604C25.9067 16.0202 24.7933 20.4227 23.6693 24.8227C23.704 25.1336 23.7387 25.4546 23.7733 25.7639L24.048 28.2483Z" fill="#385DB2"/>
<path d="M16.828 74.2103L16.2933 74.2216L16.0733 74.2237C13.6 74.2237 12.2133 72.9623 11.9493 70.4748C11.468 65.9253 10.8786 61.3003 10.3093 56.8273C10.0506 54.7956 9.79065 52.7633 9.54131 50.7305C8.70131 43.906 7.86664 37.0805 7.03331 30.2545L6.00531 21.8529L5.3893 16.8701C4.96396 13.4456 4.55063 10.0196 4.15196 6.59202C3.86663 6.59202 3.5813 6.58521 3.29597 6.58788C0.462637 6.61068 0.367984 6.65295 0.677318 9.39775C1.32532 15.1587 2.06798 20.9092 2.77198 26.6639C3.94931 36.2899 5.12265 45.916 6.30665 55.5404C7.11865 62.1321 8.01996 68.7139 8.71996 75.3169C8.90129 77.0347 9.61465 77.3811 11.1147 77.3488C14.3853 77.2779 17.668 77.1915 20.9293 77.3764C23.0613 77.4967 23.816 76.6352 24.3013 74.6821C24.3426 74.516 24.3866 74.3508 24.428 74.1847C23.5733 74.1571 22.6813 74.1388 21.6973 74.1388C20.0746 74.1388 18.4493 74.1743 16.828 74.2103Z" fill="#385DB2"/>
<path d="M114.231 74.2379C114.04 74.2519 113.859 74.2592 113.687 74.2592C111.196 74.2592 109.747 72.8123 109.381 69.9587C109.155 68.1873 108.828 66.3759 108.512 64.6237C108.275 63.306 108.036 61.9879 107.833 60.6633C107.795 60.4133 107.753 60.2623 107.723 60.1769C107.663 60.1691 107.572 60.1623 107.44 60.1623C107.439 60.1623 107.439 60.1623 107.437 60.1623C104.301 60.1993 101.164 60.2185 98.0267 60.2185C94.896 60.2185 91.7667 60.1997 88.6 60.1603C88.4667 60.1603 88.3787 60.1701 88.324 60.1789C88.2893 60.2565 88.2347 60.4144 88.1787 60.7055C88.0134 61.5685 87.8307 62.4273 87.6547 63.2879C92.5293 63.3212 97.404 63.3472 102.277 63.2888C103.773 63.2712 104.363 63.9201 104.592 65.4175C105.069 68.5388 105.745 71.6279 106.147 74.7597C106.393 76.6805 107.048 77.5144 108.948 77.3696C111.281 77.1925 113.635 77.342 115.979 77.3237C118.588 77.304 118.625 77.2831 118.169 74.604C118.144 74.4592 118.119 74.3149 118.095 74.1701C117.649 74.1633 117.203 74.1555 116.759 74.1555C115.771 74.1555 114.968 74.1816 114.231 74.2379Z" fill="#385DB2"/>
<path d="M104.877 43.7008C103.975 38.5977 103.041 33.4565 102.109 28.3201C101.392 24.3727 100.676 20.4279 99.9613 16.4112L99.7546 16.4144L99.208 16.4237L99.0827 16.4248H99.0707C98.7747 16.4248 98.4826 16.4133 98.2 16.4019C97.988 16.3931 97.7813 16.3836 97.5853 16.3836C97.572 16.3836 97.56 16.3836 97.548 16.3841C97.216 17.8431 96.928 19.2368 96.6347 20.6565C96.6333 20.6628 96.632 20.6701 96.6306 20.6764C98.004 28.368 99.424 36.1311 100.808 43.8497L102.231 43.8549C103.097 43.8549 103.965 43.8488 104.832 43.8284C104.855 43.8279 104.877 43.8273 104.9 43.8269C104.892 43.7868 104.885 43.7445 104.877 43.7008Z" fill="#385DB2"/>
<path d="M67.276 74.4997C66.728 77.2352 66.7893 77.2967 69.4586 77.3222C71.9 77.3462 74.3453 77.2409 76.7826 77.3571C78.2653 77.4284 78.8746 76.7456 79.1533 75.2811C79.2239 74.9123 79.304 74.5461 79.376 74.1784C79.316 74.1784 79.2546 74.1748 79.1933 74.1748C78.5653 74.1748 77.936 74.1811 77.3066 74.1873C76.664 74.1931 76.0226 74.1993 75.3813 74.1993L74.5773 74.1956C72.96 74.18 71.6826 74.168 70.816 73.1008C69.9426 72.0232 70.2026 70.7237 70.5333 69.0784C71.4293 64.6087 72.348 60.144 73.268 55.6795L83.3626 6.59508C81.2146 6.65188 81.128 7.04828 80.5293 9.95708C77.2706 25.8092 74.008 41.6607 70.7493 57.5133C69.5853 63.1743 68.412 68.8327 67.276 74.4997Z" fill="#385DB2"/>
<path d="M134.716 74.1827C133.512 74.192 132.276 74.2008 130.997 74.2008H127.768L129.313 71.366L130.016 70.0639C130.444 69.2664 130.807 68.5931 131.189 67.9321L135.14 61.1029C135.761 60.0264 136.405 58.9185 137.033 57.8331C133.921 63.1988 130.82 68.5701 127.712 73.9373C127.145 74.9139 126.628 75.9175 125.86 77.3279C130.117 77.3279 133.891 77.2221 137.655 77.3727C139.508 77.4467 140.496 76.7201 141.381 75.1931C141.569 74.8685 141.764 74.5472 141.952 74.2232C140.796 74.1873 139.557 74.1655 138.055 74.1655C136.963 74.1655 135.853 74.1737 134.716 74.1827Z" fill="#385DB2"/>
<path d="M149.016 37.2806C149.728 36.077 149.729 35.566 149.027 34.4035C144.636 27.1472 140.265 19.7196 136.039 12.5368L132.544 6.59975C130.696 6.59562 128.803 6.58828 126.784 6.58828C127.652 8.16388 128.173 9.17015 128.748 10.1445C134.321 19.594 139.851 29.0701 145.529 38.4549C146.536 40.1175 146.54 41.3519 145.703 42.9373C146.808 41.0497 147.908 39.154 149.016 37.2806Z" fill="#385DB2"/>
<path d="M165.283 9.04361C164.225 10.9383 163.137 12.8164 162.055 14.6972C163.259 12.6415 164.449 10.5831 165.647 8.49975C165.527 8.68268 165.399 8.83575 165.283 9.04361Z" fill="#385DB2"/>
<path d="M174.455 74.066C173.173 74.0087 172.02 73.0603 170.823 71.0816C168.361 67.0149 165.935 62.9279 163.509 58.8404C162.219 56.6675 160.929 54.4946 159.633 52.3248C159.581 52.2363 159.527 52.1456 159.472 52.0535C159.412 52.1545 159.352 52.254 159.295 52.3498L156.896 56.3691C156.771 56.5795 156.641 56.7983 156.515 57.0098C160.117 63.0514 163.684 69.1149 167.325 75.1331C167.829 75.9655 168.672 77.1617 169.403 77.194C173.749 77.3888 178.108 77.2904 182.817 77.2904C182.189 76.0977 181.829 75.3488 181.413 74.6327C181.327 74.4847 181.241 74.3363 181.155 74.1883C181.128 74.1883 181.101 74.1888 181.075 74.1888C178.396 74.1888 176.355 74.1508 174.455 74.066Z" fill="#385DB2"/>
<path d="M29.4387 69.6379C31.52 61.2519 33.7533 52.9035 35.9453 44.5446C36.1493 43.765 36.5493 41.8144 36.9186 41.7617C37.2293 41.8212 37.1387 41.8274 37.3053 42.3383C37.976 44.9883 38.6506 47.6379 39.3186 50.2883C40.9933 56.9316 42.6747 63.5727 44.328 70.2207C44.5893 71.2732 44.7453 72.2847 46.1827 72.2847C46.1907 72.2847 46.1987 72.2847 46.2067 72.2847C46.9987 72.2784 47.7893 72.2764 48.5813 72.2764C49.7507 72.2764 50.9213 72.2805 52.0907 72.2805C54.036 72.2805 55.9813 72.2691 57.924 72.2087C58.504 72.1904 59.224 71.427 59.5773 70.83C59.932 70.2316 59.928 69.4123 60.0493 68.6842C62.732 52.555 65.4093 36.4248 68.0907 20.2951C68.9547 15.0909 69.8346 9.88935 70.6893 4.68362C71.188 1.64455 71.1053 1.55922 67.876 1.54095C66.7 1.53415 65.524 1.53163 64.3467 1.53163C63.0947 1.53163 61.8427 1.53468 60.592 1.54042C57.5413 1.55455 57.5547 1.56442 57.0267 4.57695C55.4973 13.3014 53.9667 22.0264 52.4147 30.7472C51.9667 33.2618 51.712 34.4128 51.2253 36.9207C50.9707 37.7997 50.756 38.2254 50.552 38.2254C50.3426 38.2254 50.1467 37.7805 49.9333 36.9207C49.6253 35.6352 49.6253 35.706 49.3427 34.4155C47.3133 25.1472 45.2227 15.892 43.3227 6.59722C42.94 4.72696 42.2093 3.94508 40.6067 3.94455C40.408 3.94455 40.196 3.95709 39.968 3.98055C39.26 4.05402 38.5427 4.08682 37.824 4.08682C37.06 4.08682 36.296 4.04975 35.54 3.98469C35.3347 3.96749 35.14 3.95816 34.956 3.95816C33.3626 3.95816 32.56 4.64976 32.1027 6.55975C29.7693 16.291 27.212 25.9691 24.7253 35.6633C24.564 36.2893 24.2853 37.9988 23.94 37.9988C23.7973 37.9988 23.644 37.7055 23.4827 36.9207C22.476 33.5565 22.5 31.6962 22.1413 28.4592C21.2373 20.2842 20.3213 12.1103 19.5067 3.92642C19.3293 2.14362 18.6053 1.49829 16.988 1.49829C16.8853 1.49829 16.7773 1.50082 16.6667 1.50602C15.6373 1.55402 14.6053 1.56802 13.5733 1.56802C12.1227 1.56802 10.6706 1.54042 9.21998 1.54042C8.95732 1.54042 8.696 1.54149 8.43333 1.54362C5.6 1.56642 5.50534 1.60869 5.81468 4.35349C6.46268 10.1144 7.20534 15.865 7.90934 21.6196C9.08667 31.2456 10.26 40.8716 11.444 50.4962C12.256 57.0879 13.1573 63.6696 13.8573 70.2727C14.0307 71.9201 14.6947 72.306 16.0733 72.306C16.1307 72.306 16.1906 72.3055 16.252 72.3046C18.0653 72.265 19.8827 72.2212 21.6973 72.2212C23.156 72.2212 24.6133 72.2493 26.068 72.3316C26.1973 72.3393 26.3227 72.3431 26.444 72.3431C28.2907 72.3431 28.9827 71.4716 29.4387 69.6379Z" fill="#DF3625"/>
<path d="M104.877 45.7456C103.996 45.7664 103.113 45.7727 102.231 45.7727C100.865 45.7727 99.5013 45.7576 98.1373 45.7576C96.9653 45.7597 95.7946 45.7623 94.6226 45.7623C94.0359 45.7623 93.4479 45.7617 92.8613 45.7603C89.3333 45.7493 89.3266 45.7456 90.0893 42.1664C91.4693 35.6899 92.86 29.2164 94.24 22.7399C94.7666 20.2727 95.2 18.0191 95.768 15.5639C95.9866 14.6243 96.6866 14.466 97.5853 14.466C98.0426 14.466 98.5493 14.5071 99.0706 14.5071C99.1093 14.5071 99.1466 14.5065 99.1853 14.506C99.6306 14.5008 100.005 14.4883 100.32 14.4883C101.232 14.4883 101.624 14.5925 101.703 15.2685C103.365 24.5915 105.115 34.0409 106.767 43.3664C107.145 45.5107 106.953 45.6967 104.877 45.7456ZM72.4133 69.4555C71.8653 72.1904 71.9266 72.2524 74.596 72.2779C74.8573 72.2805 75.1186 72.2816 75.3813 72.2816C76.652 72.2816 77.9226 72.2571 79.1933 72.2571C80.1039 72.2571 81.0119 72.2696 81.9199 72.3128C81.9893 72.3164 82.0573 72.318 82.1239 72.318C83.4586 72.318 84.0253 71.6327 84.2906 70.2363C84.9186 66.9311 85.664 63.6508 86.2946 60.3456C86.5693 58.9097 87.1533 58.2425 88.6 58.2425C88.62 58.2425 88.64 58.2425 88.66 58.2425C91.7826 58.2821 94.904 58.3008 98.0266 58.3008C101.156 58.3008 104.285 58.2821 107.415 58.2445C107.435 58.2445 107.455 58.244 107.473 58.244C108.927 58.244 109.503 58.8956 109.729 60.3732C110.207 63.4945 110.884 66.5836 111.284 69.7149C111.512 71.4951 112.091 72.3409 113.687 72.3409C113.813 72.3409 113.945 72.3357 114.085 72.3253C114.975 72.2576 115.865 72.2379 116.759 72.2379C118.071 72.2379 119.387 72.2811 120.7 72.2811C120.839 72.2811 120.977 72.2805 121.116 72.2795C123.725 72.2597 123.764 72.2388 123.307 69.5597C121.732 60.3273 120.131 51.1003 118.536 41.8716C116.368 29.3253 114.2 16.7779 112.021 4.2336C111.56 1.57894 111.537 1.56174 109.009 1.54361C107.725 1.53468 106.443 1.53214 105.159 1.53214C103.233 1.53214 101.307 1.53827 99.3813 1.53827C99.3666 1.53827 99.3533 1.53827 99.3386 1.53827C97.356 1.53827 95.3719 1.53734 93.3893 1.53734C92.1493 1.53734 90.908 1.53734 89.668 1.53881C86.3546 1.54254 86.3586 1.54614 85.6666 4.91227C82.408 20.7649 79.1453 36.6164 75.8866 52.4691C74.7226 58.1295 73.5493 63.7883 72.4133 69.4555Z" fill="#DF3625"/>
<path d="M150.667 33.4107C151.752 35.2029 151.717 36.4805 150.667 38.2565C144.653 48.4248 138.769 58.6701 132.849 68.8931C132.284 69.8691 131.765 70.8732 130.997 72.2831C133.483 72.2831 135.804 72.2477 138.055 72.2477C139.659 72.2477 141.227 72.266 142.792 72.3279C142.879 72.3316 142.961 72.3331 143.044 72.3331C144.736 72.3331 145.673 71.6049 146.519 70.1488C150.169 63.8545 153.923 57.6196 157.648 51.368C158.553 49.8472 159.012 49.0873 159.471 49.0873C159.928 49.0873 160.384 49.8393 161.28 51.3415C165.009 57.5893 168.696 63.8633 172.463 70.0883C172.967 70.9212 173.809 72.1169 174.54 72.1497C176.701 72.2467 178.865 72.2712 181.075 72.2712C183.308 72.2712 185.587 72.2461 187.955 72.2461C187.327 71.0535 186.967 70.3045 186.551 69.5879C180.513 59.1956 174.504 48.7868 168.393 38.4373C167.324 36.6273 167.065 35.2097 168.325 33.3273C170.493 30.0904 172.356 26.6493 174.341 23.2915C178.205 16.7582 182.087 10.2347 185.916 3.68108C187.036 1.76388 186.921 1.58416 184.756 1.55242C184.309 1.54562 183.861 1.54362 183.413 1.54362C181.743 1.54362 180.071 1.57895 178.4 1.57895C177.141 1.57895 175.884 1.55868 174.629 1.48735C174.499 1.48002 174.372 1.47642 174.249 1.47642C172.364 1.47642 171.341 2.34668 170.42 3.99882C167.337 9.52322 164.123 14.9748 160.921 20.4321C160.221 21.6253 159.847 22.2232 159.471 22.2232C159.092 22.2232 158.712 21.6139 157.996 20.392C154.745 14.8404 151.531 9.26802 148.301 3.70495C147.676 2.62895 147.172 1.51962 145.592 1.51909C145.573 1.51909 145.555 1.51962 145.536 1.51962C143.673 1.55028 141.811 1.55922 139.896 1.55922C137.371 1.55922 134.752 1.54402 131.921 1.54402C132.789 3.11962 133.311 4.12535 133.887 5.10028C139.459 14.5493 144.988 24.0253 150.667 33.4107Z" fill="#DF3625"/>
<path d="M263.481 51.806C263.533 48.1024 261.243 45.6669 257.195 45.1237C254.465 44.7571 251.719 44.7045 248.812 44.6488C247.548 44.6243 246.285 44.5998 244.96 44.5472C244.984 45.6327 244.976 46.718 244.972 47.804C247.432 47.8571 249.888 47.942 252.312 48.2669C257.42 48.9529 260.22 52.2513 260.248 56.6669C260.327 56.6336 260.404 56.6196 260.483 56.5847C262.468 55.7196 263.449 54.156 263.481 51.806Z" fill="#385DB2"/>
<path d="M246.897 74.192L239.053 74.1795C236.841 74.1795 234.629 74.1883 232.417 74.2207L232.283 74.2216H232.269C231.359 74.2216 230.036 74.1097 229.073 73.1404C228.108 72.168 227.993 70.816 228 69.7472C228.059 61.5451 228.051 53.2014 228.043 45.1327L228.037 28.1737C228.036 21.0029 228.036 13.8322 228.041 6.66068C227.951 6.65975 227.86 6.65869 227.768 6.65709C224.851 6.62269 224.825 6.69202 224.823 9.63575C224.812 20.392 224.819 31.1483 224.819 41.9045C224.819 52.8712 224.859 63.8388 224.781 74.8049C224.768 76.7029 225.259 77.3764 227.252 77.3477C234.949 77.2352 242.651 77.4071 250.345 77.2431C255.367 77.1357 260.015 75.5972 264.384 72.992C265.028 72.6071 265.631 72.1805 266.213 71.7368C262.708 73.2169 259.131 74.0388 255.523 74.116C252.364 74.1831 249.253 74.192 246.897 74.192Z" fill="#385DB2"/>
<path d="M262.527 21.7013C262.433 20.1216 261.527 18.754 260.036 17.9494C258.583 17.1644 257.209 16.7087 256.064 16.6316C253.709 16.4727 251.271 16.4712 248.913 16.4702C247.608 16.4696 246.301 16.4686 244.957 16.4431C244.987 17.494 244.976 18.5467 244.971 19.5988C247.003 19.6035 249.033 19.6264 251.056 19.7623C252.675 19.8712 254.36 20.5227 255.811 21.306C257.971 22.4732 259.116 24.4587 259.275 26.5254C259.644 26.3399 260.021 26.1691 260.368 25.9248C261.816 24.9076 262.623 23.3284 262.527 21.7013Z" fill="#385DB2"/>
<path d="M381.129 32.5737C380.601 27.5055 379.411 23.6858 377.383 20.5535C375.539 17.705 373.283 16.4347 370.068 16.4347C368.74 16.4347 367.416 16.4399 366.095 16.4456C364.777 16.4508 363.461 16.456 362.151 16.456C361.959 16.456 361.687 16.456 361.435 16.4612C361.428 16.7212 361.427 17.0087 361.425 17.2243C361.423 17.8363 361.421 18.6445 361.42 19.5707C362.591 19.566 363.753 19.5612 364.931 19.5612C368.94 19.5612 371.76 21.3207 373.855 24.5555C376.389 28.4696 377.427 32.8764 377.9 37.4196C378.519 43.3655 377.655 49.0336 375.371 54.4029C376.024 53.7013 376.617 52.8707 377.163 51.8888C380.504 45.879 381.839 39.3811 381.129 32.5737Z" fill="#385DB2"/>
<path d="M358.508 73.954C355.38 74.0202 352.144 74.0883 348.973 74.2133L348.649 74.2201C347.344 74.2201 346.364 73.8732 345.655 73.1603C344.691 72.1915 344.564 70.9035 344.569 69.6555C344.612 61.4644 344.607 53.2722 344.6 45.0806L344.596 28.8383C344.593 21.4394 344.593 14.0404 344.6 6.64149C344.576 6.64096 344.552 6.64096 344.528 6.64042C341.413 6.60082 341.385 6.68002 341.381 9.81442C341.369 20.5779 341.376 31.3409 341.377 42.104C341.377 52.9727 341.405 63.8415 341.351 74.7103C341.341 76.4936 341.664 77.4238 343.761 77.3415C350.817 77.0634 357.887 77.0716 364.94 76.7321C370.631 76.4587 375.319 74.7149 379.147 71.7436C376.407 72.7888 373.433 73.4461 370.169 73.6035C366.276 73.7904 362.327 73.8738 358.508 73.954Z" fill="#385DB2"/>
<path d="M548.757 43.3363C547.827 38.1732 546.865 32.9727 545.905 27.7759C545.165 23.7712 544.425 19.7691 543.685 15.6936L543.416 15.6972L542.855 15.7065L542.724 15.7076H542.712C542.409 15.7076 542.109 15.6961 541.82 15.6841C541.599 15.6753 541.385 15.6664 541.181 15.6664C541.148 15.6664 541.119 15.6664 541.089 15.6669C540.784 16.9805 540.52 18.2388 540.252 19.5123C540.26 19.5497 540.283 19.5633 540.288 19.6055C541.729 27.5368 543.224 35.5472 544.677 43.5092L545.969 43.5139C546.864 43.5139 547.76 43.5071 548.655 43.4868C548.7 43.4857 548.743 43.4841 548.784 43.4831C548.776 43.4368 548.768 43.3879 548.757 43.3363Z" fill="#385DB2"/>
<path d="M520.276 74.1639C519.615 74.1701 518.955 74.1764 518.293 74.1764L517.465 74.1727C515.808 74.1571 514.5 74.1445 513.627 73.0655C512.749 71.9795 513.016 70.6712 513.355 69.0149C514.283 64.4696 515.235 59.93 516.187 55.3904L526.592 5.72734C524.472 5.79454 524.365 6.22427 523.759 9.12427C520.4 25.1675 517.036 41.2092 513.677 57.2524C512.477 62.9811 511.267 68.7076 510.096 74.4431C509.531 77.2107 509.595 77.2732 512.345 77.2993C514.863 77.3232 517.384 77.2169 519.896 77.3347C521.424 77.4065 522.053 76.7155 522.34 75.2331C522.409 74.8737 522.489 74.5169 522.561 74.1581C522.448 74.1576 522.336 74.1513 522.223 74.1513C521.573 74.1513 520.925 74.1576 520.276 74.1639Z" fill="#385DB2"/>
<path d="M558.333 74.2155C558.14 74.2295 557.955 74.2368 557.779 74.2368C555.249 74.2368 553.776 72.7805 553.401 69.9092C553.168 68.1169 552.831 66.2841 552.505 64.5117C552.26 63.1773 552.015 61.8431 551.805 60.5024C551.763 60.2305 551.716 60.0737 551.684 59.992C551.62 59.9816 551.511 59.9707 551.34 59.9707C551.339 59.9707 551.337 59.9707 551.336 59.9707C548.104 60.0081 544.871 60.0279 541.637 60.0279C538.411 60.0279 535.184 60.0081 531.919 59.9685C531.757 59.9685 531.656 59.9816 531.611 59.9816C531.603 59.9816 531.596 59.9811 531.592 59.9795C531.559 60.0431 531.492 60.2035 531.425 60.5456C531.26 61.3983 531.076 62.2461 530.899 63.0961C535.991 63.1321 541.084 63.1565 546.177 63.0972C547.719 63.0795 548.327 63.7363 548.563 65.2514C549.056 68.4103 549.752 71.5368 550.165 74.7055C550.419 76.6497 551.095 77.4936 553.053 77.3472C555.459 77.168 557.884 77.3196 560.301 77.3008C562.991 77.2805 563.029 77.2597 562.559 74.5483C562.536 74.4149 562.512 74.2821 562.488 74.1488C561.975 74.1409 561.46 74.1321 560.947 74.1321C559.927 74.1321 559.096 74.1587 558.333 74.2155Z" fill="#385DB2"/>
<path d="M421.057 16.5098C420.783 16.5098 420.509 16.5144 420.235 16.5185C419.94 16.5232 419.645 16.5279 419.351 16.5279C419.312 16.5279 419.275 16.5279 419.235 16.5279C419.239 17.5639 419.231 18.5998 419.233 19.6358C426.675 19.6363 434.117 19.6426 441.559 19.6306C444.421 19.6259 444.431 19.5993 444.448 16.6409C444.448 16.5956 444.447 16.5503 444.448 16.505C441.389 16.5087 438.332 16.5112 435.273 16.5112L421.057 16.5098Z" fill="#385DB2"/>
<path d="M423.331 45.3409H422.695L421.235 45.3368C420.901 45.3368 420.567 45.3388 420.233 45.3461C419.897 45.3535 419.539 45.3612 419.244 45.3748C419.236 45.642 419.233 45.9513 419.231 46.2123C419.224 46.9644 419.233 47.716 419.231 48.468C423.343 48.4707 423.509 48.4873 428.693 48.4503C431.352 48.4311 431.368 48.3721 431.441 45.8232C431.447 45.6617 431.44 45.4997 431.443 45.3383C430.273 45.3445 429.413 45.3472 428.64 45.3472L423.331 45.3409Z" fill="#385DB2"/>
<path d="M418.077 74.1857C414.792 74.1857 411.505 74.1827 408.22 74.1716L408.057 74.1712C407.644 74.1712 407.277 74.1764 406.949 74.1811L406.197 74.1879C405.321 74.1879 404.12 74.1879 403.236 73.2998C402.317 72.3759 402.323 71.2237 402.332 69.3155L402.335 68.4336C402.324 60.9103 402.325 53.3868 402.328 45.8628L402.329 27.644C402.328 20.6175 402.328 13.5904 402.332 6.56389C399.143 6.56642 399.116 6.61175 399.113 9.85295C399.105 20.5098 399.111 31.166 399.111 41.8221C399.111 52.3732 399.1 62.9243 399.115 73.4753C399.121 77.8425 398.777 77.2841 403.089 77.2983C411.003 77.3248 418.915 77.306 426.829 77.3055C431.999 77.3055 437.169 77.2784 442.339 77.3201C443.703 77.3311 444.527 77.0983 444.475 75.4368C444.461 75.0191 444.467 74.6008 444.459 74.1831C443.217 74.1784 441.977 74.1701 440.736 74.1701L418.077 74.1857Z" fill="#385DB2"/>
<path d="M312.004 75.0779C304.803 75.0779 298.52 72.0232 293.835 66.2451C289.537 60.944 286.768 54.6639 285.369 47.0451C283.219 35.3352 284.401 25.0269 288.951 15.6805C288.576 16.218 288.211 16.7644 287.86 17.3273C281.215 28.0035 279.887 39.5925 282.119 51.7436C283.355 58.4795 285.835 64.7133 290.188 70.0821C296.16 77.4488 304.707 79.7379 313.831 77.2201C316.507 76.4821 318.775 75.2112 320.76 73.5951C320.335 73.7426 319.916 73.9035 319.479 74.0243C316.945 74.7232 314.431 75.0779 312.004 75.0779Z" fill="#385DB2"/>
<path d="M320.768 49.0363C322.968 41.0216 323.076 32.8191 321.089 24.6565C320.252 21.2149 319.117 18.8915 317.413 17.1232C315.993 15.6497 314.152 14.8383 312.231 14.8383C310.252 14.8388 308.441 15.7035 307.132 17.2727C306.929 17.5155 306.756 17.7664 306.569 18.015C309.089 17.8592 311.684 18.7899 313.656 20.8368C315.929 23.194 317.063 26.1555 317.816 29.2477C319.876 37.7128 319.783 46.2003 317.48 54.5883C317.307 55.2201 317.101 55.8524 316.872 56.48C317.233 56.1169 317.584 55.7311 317.903 55.2784C319.139 53.5216 320.129 51.3628 320.768 49.0363Z" fill="#385DB2"/>
<path d="M492.804 19.216C492.516 18.9155 492.256 18.6352 492.035 18.454C490.845 17.4774 489.636 16.677 488.441 16.0759C486.823 15.2607 485.185 14.8478 483.576 14.8478C480.872 14.8478 478.535 16.016 476.816 18.1451C479.163 17.7868 481.691 18.1607 484.167 19.4071C485.568 20.1128 486.9 21.0196 488.115 22.0164C489.192 22.9003 491.128 25.644 492.364 24.7352C493.564 23.727 494.924 22.7248 496.215 21.6472C494.887 21.3212 493.783 20.2368 492.804 19.216Z" fill="#385DB2"/>
<path d="M483.315 74.9327C481.08 74.9327 478.989 74.753 477.103 74.3978C470.669 73.1879 465.387 69.3795 461.403 63.0789C456.419 55.1988 454.237 45.9925 454.537 34.1065C454.705 27.4977 456.087 21.5508 458.675 16.0857C453.848 23.0305 451.532 30.7388 451.317 39.1997C451.068 49.0863 452.481 58.5545 457.885 67.0983C461.307 72.5076 465.947 76.3587 472.32 77.5576C475.184 78.0962 478.208 78.1488 481.129 77.9607C485.924 77.653 489.9 76.1628 493.048 73.5472C491.011 74.2445 488.788 74.6759 486.389 74.83C485.331 74.8983 484.296 74.9327 483.315 74.9327Z" fill="#385DB2"/>
<path d="M491.435 48.1087C491.389 48.0748 491.356 48.0477 491.376 48.0436C491.003 48.0321 490.701 48.0269 490.451 48.0269C489.876 48.0269 489.575 48.0545 489.221 48.0863C488.755 48.1279 488.212 48.1774 487.084 48.1983C486.773 48.204 486.499 48.2087 486.255 48.2087C482.536 48.2087 482.504 45.9155 482.472 43.6978C482.453 42.3566 482.465 41.0149 482.471 39.6737C482.356 39.6743 482.261 39.6748 482.139 39.6754C479.279 39.694 479.271 39.7107 479.249 42.6967C479.235 44.7029 479.224 46.7092 479.253 48.7155C479.289 51.354 479.308 51.3743 481.911 51.3253C484.339 51.2795 483.873 51.0977 486.296 51.1707C486.927 51.1899 487.955 51.8316 488.088 52.3649C488.453 53.8295 488.44 55.9139 487.995 58.0035C491.059 56.0988 491.965 50.8879 491.435 48.1087Z" fill="#385DB2"/>
<path d="M261.249 58.3431C259.643 59.044 257.847 59.5571 256.108 59.6581C254.371 59.7587 252.629 59.7769 250.887 59.7769C249.888 59.7769 248.888 59.7707 247.889 59.7707C246.945 59.7707 246.003 59.7764 245.06 59.7972C245.017 59.7983 244.975 59.7983 244.933 59.7983C243.551 59.7983 242.977 59.2701 243.031 57.7988C243.113 55.4863 243.052 53.1686 243.052 50.853C243.053 48.7478 243.089 46.642 243.041 44.5379C243.012 43.2831 243.469 42.6196 244.707 42.6196C244.759 42.6196 244.813 42.6207 244.868 42.6227C249.065 42.8046 253.304 42.6664 257.449 43.2227C262.641 43.9201 265.463 47.3087 265.4 51.8331C265.357 54.8759 263.997 57.1445 261.249 58.3431ZM253.367 29.7822C252.62 29.8243 251.872 29.8374 251.123 29.8374C249.928 29.8374 248.732 29.804 247.537 29.804C246.844 29.804 246.152 29.8155 245.461 29.8503C245.356 29.856 245.255 29.8587 245.159 29.8587C243.372 29.8587 242.904 28.953 243.024 27.2112C243.14 25.5322 243.048 23.8383 243.048 22.1508C243.053 20.253 243.093 18.3535 243.039 16.4565C243.003 15.2029 243.373 14.5207 244.721 14.5207C244.752 14.5207 244.781 14.5212 244.812 14.5216C248.607 14.6035 252.412 14.4633 256.193 14.718C257.812 14.8269 259.497 15.4784 260.948 16.2617C265.411 18.6727 265.639 24.5639 261.471 27.494C259.045 29.1997 256.211 29.6207 253.367 29.7822ZM271.171 36.804C269.828 35.9712 270.067 35.3555 271.092 34.4607C273.496 32.3649 275.685 30.0738 276.591 26.892C278.548 20.0008 277.256 10.8045 268.857 5.63882C265.577 3.62122 262.047 2.17215 258.192 2.05189C249.767 1.78882 241.336 1.71388 232.905 1.61282C232.671 1.61028 232.455 1.60815 232.255 1.60815C229.984 1.60815 229.963 1.88469 229.96 4.59149C229.949 15.3478 229.956 26.1035 229.956 36.8598C229.956 47.827 229.996 58.794 229.919 69.7607C229.905 71.6196 230.376 72.304 232.269 72.304C232.309 72.304 232.349 72.304 232.389 72.3035C234.611 72.2707 236.833 72.2617 239.053 72.2617C241.668 72.2617 244.283 72.2738 246.897 72.2738C249.76 72.2738 252.62 72.2597 255.483 72.1983C260.504 72.0909 265.152 70.5524 269.521 67.9477C281.139 61.0207 282.701 43.9576 271.171 36.804Z" fill="#DF3625"/>
<path d="M378.839 52.8207C376.44 57.1352 373.077 59.2352 367.825 59.2352C365.777 59.2352 363.515 59.2269 361.343 59.2269C359.515 59.2269 359.459 58.5254 359.475 56.805C359.537 50.1546 359.477 23.7607 359.508 17.2155C359.52 14.6045 359.572 14.5383 362.151 14.5383C364.775 14.5383 367.415 14.5169 370.068 14.5169C374.077 14.5169 376.897 16.2764 378.992 19.5112C381.527 23.4254 382.564 27.8322 383.037 32.3754C383.791 39.6134 382.383 46.4472 378.839 52.8207ZM372.113 2.05815C364.641 1.68629 357.149 1.69095 349.664 1.59615C349.408 1.59308 349.172 1.59042 348.956 1.59042C346.547 1.59042 346.523 1.89402 346.519 4.77016C346.507 15.5331 346.513 26.2967 346.515 37.0598C346.515 47.9284 346.543 58.7972 346.488 69.6655C346.479 71.3764 346.775 72.3019 348.649 72.3019C348.729 72.3019 348.812 72.3003 348.899 72.2972C355.955 72.0185 363.024 72.0273 370.077 71.6879C380.867 71.1685 388.141 65.4977 392.531 55.8284C394.785 50.8617 395.815 45.5946 396.149 40.2008C396.697 31.3394 395.745 22.716 391.544 14.6978C387.432 6.85029 380.943 2.49775 372.113 2.05815Z" fill="#DF3625"/>
<path d="M548.699 45.404C547.789 45.4248 546.879 45.4316 545.969 45.4316C544.563 45.4316 543.156 45.416 541.751 45.416C540.543 45.418 539.335 45.4207 538.128 45.4207C537.523 45.4207 536.917 45.4201 536.312 45.4185C532.675 45.4076 532.668 45.404 533.455 41.7816C534.876 35.2273 536.309 28.6759 537.733 22.1216C538.276 19.6253 538.723 17.3446 539.309 14.8598C539.533 13.9087 540.256 13.7488 541.181 13.7488C541.652 13.7488 542.175 13.7899 542.712 13.7899C542.752 13.7899 542.791 13.7893 542.831 13.7893C543.289 13.7836 543.676 13.7712 544 13.7712C544.941 13.7712 545.344 13.8764 545.425 14.5607C547.14 23.9956 548.944 33.5587 550.645 42.9961C551.036 45.166 550.839 45.3545 548.699 45.404ZM562.779 41.4836C560.543 28.7863 558.309 16.0883 556.063 3.39309C555.587 0.706556 555.563 0.688815 552.957 0.671215C551.632 0.661748 550.307 0.659219 548.981 0.659219C546.999 0.659219 545.016 0.665486 543.033 0.665486C543.017 0.665486 543.004 0.665486 542.989 0.665486C540.949 0.665486 538.909 0.66389 536.871 0.66389C535.587 0.66389 534.304 0.664423 533.02 0.666023C529.604 0.669623 529.609 0.673216 528.896 4.08002C525.537 20.1232 522.173 36.1649 518.813 52.2076C517.615 57.9368 516.404 63.6628 515.233 69.3983C514.668 72.1664 514.732 72.2289 517.483 72.2549C517.753 72.2576 518.023 72.2587 518.293 72.2587C519.603 72.2587 520.913 72.2336 522.223 72.2336C523.16 72.2336 524.097 72.2461 525.033 72.2904C525.105 72.2936 525.175 72.2951 525.243 72.2951C526.62 72.2951 527.204 71.6019 527.477 70.1888C528.125 66.8436 528.892 63.5243 529.543 60.1795C529.825 58.7259 530.428 58.0508 531.919 58.0508C531.94 58.0508 531.96 58.0508 531.981 58.0508C535.2 58.0904 538.419 58.1097 541.637 58.1097C544.863 58.1097 548.089 58.0904 551.315 58.0529C551.335 58.0529 551.355 58.0529 551.375 58.0529C552.872 58.0529 553.467 58.7117 553.7 60.2071C554.193 63.366 554.889 66.492 555.303 69.6612C555.537 71.4623 556.135 72.3191 557.779 72.3191C557.909 72.3191 558.047 72.3139 558.191 72.3029C559.107 72.2347 560.027 72.2144 560.947 72.2144C562.299 72.2144 563.655 72.2581 565.007 72.2581C565.151 72.2581 565.295 72.2576 565.437 72.2565C568.128 72.2363 568.167 72.2155 567.696 69.504C566.073 60.1607 564.423 50.8227 562.779 41.4836Z" fill="#DF3625"/>
<path d="M449.612 70.3925C449.512 67.23 449.557 64.0623 449.593 60.8977C449.607 59.7019 449.091 59.2081 447.949 59.2081C447.929 59.2081 447.909 59.2087 447.889 59.2087C447.28 59.218 446.671 59.2207 446.061 59.2207C444.772 59.2207 443.481 59.2071 442.192 59.2071C441.711 59.2065 441.228 59.2066 440.747 59.2066C437.08 59.2066 433.412 59.2092 429.745 59.2092C426.613 59.2092 423.483 59.2071 420.351 59.2008C417.348 59.1946 417.329 59.1707 417.312 56.3259C417.291 52.9497 417.285 49.5732 417.313 46.1967C417.335 43.4945 417.361 43.4904 420.192 43.429C420.539 43.4212 420.887 43.4191 421.235 43.4191C421.721 43.4191 422.208 43.4232 422.695 43.4232C422.704 43.4232 422.715 43.4232 422.724 43.4232C422.933 43.4232 423.136 43.4232 423.331 43.4232C426.061 43.4232 427.276 43.4295 428.64 43.4295C429.857 43.4295 431.192 43.4243 433.831 43.4055C436.489 43.3868 436.505 43.3273 436.579 40.7789C436.619 39.4081 436.591 38.0358 436.591 36.6644C436.591 30.4764 436.591 30.477 430.476 30.4764C424.779 30.4759 425.384 30.4748 419.687 30.4716C419.68 30.4716 419.675 30.4716 419.669 30.4716C419.596 30.4716 419.524 30.4716 419.452 30.4716C418.344 30.4716 417.297 30.4212 417.308 28.7764C417.337 24.556 417.333 20.3357 417.316 16.1155C417.311 15.0727 417.767 14.6035 418.759 14.6035C418.787 14.6035 418.813 14.6035 418.841 14.6046C419.011 14.6087 419.181 14.6103 419.351 14.6103C419.919 14.6103 420.488 14.592 421.057 14.592C421.7 14.592 422.344 14.592 422.987 14.592C427.083 14.592 431.179 14.5936 435.273 14.5936C439.081 14.5936 442.888 14.592 446.696 14.5858C449.559 14.5811 449.568 14.555 449.585 11.5967C449.599 9.27535 449.597 6.95402 449.585 4.63309C449.569 1.54149 449.563 1.52122 446.481 1.51962C439.993 1.51549 433.504 1.51335 427.016 1.51335C420.527 1.51335 414.037 1.51549 407.549 1.51855C404.271 1.52069 404.253 1.53789 404.251 4.80869C404.243 15.465 404.248 26.1216 404.247 36.7779C404.247 47.329 404.237 57.88 404.252 68.4311C404.257 71.9462 404.036 72.2701 406.197 72.2701C406.687 72.2701 407.296 72.2535 408.057 72.2535C408.113 72.2535 408.169 72.254 408.227 72.254C411.509 72.2649 414.795 72.268 418.077 72.268C422.708 72.268 427.336 72.2617 431.965 72.2612C434.889 72.2612 437.813 72.2524 440.736 72.2524C442.983 72.2524 445.229 72.2576 447.476 72.2759C447.504 72.2759 447.533 72.2759 447.563 72.2759C448.875 72.2759 449.663 72.018 449.612 70.3925Z" fill="#DF3625"/>
<path d="M322.617 49.5436C321.96 51.9393 320.895 54.3581 319.471 56.3821C317.548 59.1155 314.931 60.4603 312.319 60.4603C309.529 60.4603 306.747 58.9289 304.815 55.9212C302.365 52.1065 301.363 47.7664 300.828 43.3565C300.153 37.806 300.075 28.6196 302.393 22.0899C302.932 19.9264 304.212 17.7789 305.66 16.044C307.405 13.9508 309.804 12.9212 312.229 12.9207C314.581 12.9207 316.957 13.8879 318.793 15.792C321.067 18.1493 322.2 21.1112 322.953 24.2029C325.013 32.6685 324.92 41.156 322.617 49.5436ZM338.44 36.7639C338.337 34.868 338.315 32.9644 338.12 31.0779C337.279 22.9133 334.539 15.4555 329.364 9.04041C324.805 3.39041 319.197 0.65921 312.775 0.65921C310.655 0.65921 308.445 0.956541 306.157 1.54507C300.219 3.07161 296.153 7.21068 292.997 12.2831C286.352 22.9592 285.024 34.5483 287.256 46.6988C288.492 53.4352 290.972 59.6691 295.325 65.0373C299.745 70.4888 305.575 73.1603 312.004 73.1603C314.263 73.1603 316.596 72.8305 318.968 72.1759C325.117 70.4789 329.215 66.0893 332.308 60.7212C336.576 53.3164 338.368 45.2612 338.44 36.7639Z" fill="#DF3625"/>
<path d="M511.973 44.0623V38.2836C511.973 35.1341 512.549 34.6212 509.503 34.6212L503.643 34.6221C503.556 34.6201 503.496 34.5983 503.405 34.5983C503.4 34.5983 503.393 34.5983 503.388 34.5983C502.668 34.6216 501.947 34.6144 501.227 34.6227L493.011 34.6238V34.6273C491.548 34.6259 490.811 34.6207 489.887 34.6207C489.225 34.6207 488.468 34.6232 487.276 34.6311C484.416 34.6498 484.408 34.666 484.387 37.6524C484.372 39.6587 484.361 41.6649 484.389 43.6707C484.423 46.0087 484.441 46.2909 486.255 46.2909C486.488 46.2909 486.751 46.2868 487.048 46.2811C489.077 46.2431 489.085 46.1092 490.451 46.1092C490.717 46.1092 491.037 46.1144 491.433 46.1264C492.064 46.1456 493.092 46.7873 493.225 47.3207C494.117 50.892 492.908 58.1587 488.084 60.1685C486.869 60.6748 485.585 60.9112 484.3 60.9112C480.439 60.9112 476.553 58.7795 474.409 55.4207C473.237 53.5836 472.324 51.4847 471.751 49.3806C469.807 42.2467 469.677 34.9603 470.967 27.729C471.512 24.6691 472.547 21.5529 474.039 18.8347C476.167 14.9571 479.699 12.93 483.576 12.93C485.444 12.93 487.393 13.4008 489.304 14.3623C490.705 15.068 492.037 15.9753 493.252 16.9721C494.179 17.7331 495.744 19.8727 496.949 19.8727C497.144 19.8727 497.329 19.8169 497.501 19.6909C499.6 17.9289 502.217 16.2196 504.015 14.0087C505.173 12.953 504.985 11.7123 503.896 10.366C502.751 8.95029 501.236 7.54402 500.576 6.98269C495.829 2.94202 489.581 0.666426 483.345 0.666026C476.263 0.665493 469.196 3.60188 464.361 10.2243C459.14 17.3773 456.677 25.3644 456.455 34.155C456.205 44.042 457.619 53.5103 463.023 62.054C466.444 67.4633 471.084 71.3144 477.457 72.5128C479.365 72.8722 481.344 73.0149 483.315 73.0149C484.304 73.0149 485.291 72.979 486.267 72.9164C495.007 72.3546 501.136 68.0087 504.196 59.6972C505.611 55.8565 506.025 50.8931 506.053 46.0696L510.823 46.042C512.092 46.042 511.973 45.1445 511.973 44.0623Z" fill="#DF3625"/>
<path d="M50.4814 30.666C50.496 30.5827 50.5107 30.4977 50.5267 30.4112C51.936 22.4873 53.328 14.5535 54.724 6.59254C52.428 6.62734 52.3693 6.88161 51.8893 9.62121C50.9987 14.7003 50.1 19.7779 49.204 24.8565C49.3813 25.6592 49.5587 26.4811 49.7347 27.2773L50.4814 30.666Z" fill="#385DB2"/>
<path d="M41.0693 77.3289C44.976 77.2977 48.884 77.3748 52.7867 77.253C53.3667 77.2347 54.0867 76.4716 54.44 75.8743C54.7227 75.3983 54.7786 74.7847 54.8506 74.1863C53.8826 74.1956 52.948 74.1983 52.092 74.1983L48.5813 74.194C47.7947 74.194 47.008 74.1961 46.1827 74.2024C43.3227 74.2024 42.7533 71.8607 42.5107 70.8612L42.4667 70.6836C41.1453 65.3707 39.8067 60.0617 38.4667 54.7535L36.888 48.4998L36.3933 50.38C35.8093 52.5956 35.2187 54.8582 34.628 57.1128C36.1547 63.1623 37.6853 69.2107 39.1907 75.2655C39.4533 76.3237 39.6093 77.3404 41.0693 77.3289Z" fill="#385DB2"/>
<path d="M24.048 28.2483C24.1147 28.855 24.1693 29.4139 24.2187 29.9436L24.656 28.2467C26.2813 21.9566 27.9373 15.4852 29.5093 9.05082C28.144 9.14975 27.388 9.83882 26.9653 11.604C25.9067 16.0202 24.7933 20.4227 23.6693 24.8227C23.704 25.1336 23.7387 25.4546 23.7733 25.7639L24.048 28.2483Z" fill="#385DB2"/>
<path d="M16.828 74.2103L16.2933 74.2216L16.0733 74.2237C13.6 74.2237 12.2133 72.9623 11.9493 70.4748C11.468 65.9253 10.8786 61.3003 10.3093 56.8273C10.0506 54.7956 9.79065 52.7633 9.54131 50.7305C8.70131 43.906 7.86664 37.0805 7.03331 30.2545L6.00531 21.8529L5.3893 16.8701C4.96396 13.4456 4.55063 10.0196 4.15196 6.59202C3.86663 6.59202 3.5813 6.58521 3.29597 6.58788C0.462637 6.61068 0.367984 6.65295 0.677318 9.39775C1.32532 15.1587 2.06798 20.9092 2.77198 26.6639C3.94931 36.2899 5.12265 45.916 6.30665 55.5404C7.11865 62.1321 8.01996 68.7139 8.71996 75.3169C8.90129 77.0347 9.61465 77.3811 11.1147 77.3488C14.3853 77.2779 17.668 77.1915 20.9293 77.3764C23.0613 77.4967 23.816 76.6352 24.3013 74.6821C24.3426 74.516 24.3866 74.3508 24.428 74.1847C23.5733 74.1571 22.6813 74.1388 21.6973 74.1388C20.0746 74.1388 18.4493 74.1743 16.828 74.2103Z" fill="#385DB2"/>
<path d="M114.231 74.2379C114.04 74.2519 113.859 74.2592 113.687 74.2592C111.196 74.2592 109.747 72.8123 109.381 69.9587C109.155 68.1873 108.828 66.3759 108.512 64.6237C108.275 63.306 108.036 61.9879 107.833 60.6633C107.795 60.4133 107.753 60.2623 107.723 60.1769C107.663 60.1691 107.572 60.1623 107.44 60.1623C107.439 60.1623 107.439 60.1623 107.437 60.1623C104.301 60.1993 101.164 60.2185 98.0267 60.2185C94.896 60.2185 91.7667 60.1997 88.6 60.1603C88.4667 60.1603 88.3787 60.1701 88.324 60.1789C88.2893 60.2565 88.2347 60.4144 88.1787 60.7055C88.0134 61.5685 87.8307 62.4273 87.6547 63.2879C92.5293 63.3212 97.404 63.3472 102.277 63.2888C103.773 63.2712 104.363 63.9201 104.592 65.4175C105.069 68.5388 105.745 71.6279 106.147 74.7597C106.393 76.6805 107.048 77.5144 108.948 77.3696C111.281 77.1925 113.635 77.342 115.979 77.3237C118.588 77.304 118.625 77.2831 118.169 74.604C118.144 74.4592 118.119 74.3149 118.095 74.1701C117.649 74.1633 117.203 74.1555 116.759 74.1555C115.771 74.1555 114.968 74.1816 114.231 74.2379Z" fill="#385DB2"/>
<path d="M104.877 43.7008C103.975 38.5977 103.041 33.4565 102.109 28.3201C101.392 24.3727 100.676 20.4279 99.9613 16.4112L99.7546 16.4144L99.208 16.4237L99.0827 16.4248H99.0707C98.7747 16.4248 98.4826 16.4133 98.2 16.4019C97.988 16.3931 97.7813 16.3836 97.5853 16.3836C97.572 16.3836 97.56 16.3836 97.548 16.3841C97.216 17.8431 96.928 19.2368 96.6347 20.6565C96.6333 20.6628 96.632 20.6701 96.6306 20.6764C98.004 28.368 99.424 36.1311 100.808 43.8497L102.231 43.8549C103.097 43.8549 103.965 43.8488 104.832 43.8284C104.855 43.8279 104.877 43.8273 104.9 43.8269C104.892 43.7868 104.885 43.7445 104.877 43.7008Z" fill="#385DB2"/>
<path d="M67.276 74.4997C66.728 77.2352 66.7893 77.2967 69.4586 77.3222C71.9 77.3462 74.3453 77.2409 76.7826 77.3571C78.2653 77.4284 78.8746 76.7456 79.1533 75.2811C79.2239 74.9123 79.304 74.5461 79.376 74.1784C79.316 74.1784 79.2546 74.1748 79.1933 74.1748C78.5653 74.1748 77.936 74.1811 77.3066 74.1873C76.664 74.1931 76.0226 74.1993 75.3813 74.1993L74.5773 74.1956C72.96 74.18 71.6826 74.168 70.816 73.1008C69.9426 72.0232 70.2026 70.7237 70.5333 69.0784C71.4293 64.6087 72.348 60.144 73.268 55.6795L83.3626 6.59508C81.2146 6.65188 81.128 7.04828 80.5293 9.95708C77.2706 25.8092 74.008 41.6607 70.7493 57.5133C69.5853 63.1743 68.412 68.8327 67.276 74.4997Z" fill="#385DB2"/>
<path d="M134.716 74.1827C133.512 74.192 132.276 74.2008 130.997 74.2008H127.768L129.313 71.366L130.016 70.0639C130.444 69.2664 130.807 68.5931 131.189 67.9321L135.14 61.1029C135.761 60.0264 136.405 58.9185 137.033 57.8331C133.921 63.1988 130.82 68.5701 127.712 73.9373C127.145 74.9139 126.628 75.9175 125.86 77.3279C130.117 77.3279 133.891 77.2221 137.655 77.3727C139.508 77.4467 140.496 76.7201 141.381 75.1931C141.569 74.8685 141.764 74.5472 141.952 74.2232C140.796 74.1873 139.557 74.1655 138.055 74.1655C136.963 74.1655 135.853 74.1737 134.716 74.1827Z" fill="#385DB2"/>
<path d="M149.016 37.2806C149.728 36.077 149.729 35.566 149.027 34.4035C144.636 27.1472 140.265 19.7196 136.039 12.5368L132.544 6.59975C130.696 6.59562 128.803 6.58828 126.784 6.58828C127.652 8.16388 128.173 9.17015 128.748 10.1445C134.321 19.594 139.851 29.0701 145.529 38.4549C146.536 40.1175 146.54 41.3519 145.703 42.9373C146.808 41.0497 147.908 39.154 149.016 37.2806Z" fill="#385DB2"/>
<path d="M165.283 9.04361C164.225 10.9383 163.137 12.8164 162.055 14.6972C163.259 12.6415 164.449 10.5831 165.647 8.49975C165.527 8.68268 165.399 8.83575 165.283 9.04361Z" fill="#385DB2"/>
<path d="M174.455 74.066C173.173 74.0087 172.02 73.0603 170.823 71.0816C168.361 67.0149 165.935 62.9279 163.509 58.8404C162.219 56.6675 160.929 54.4946 159.633 52.3248C159.581 52.2363 159.527 52.1456 159.472 52.0535C159.412 52.1545 159.352 52.254 159.295 52.3498L156.896 56.3691C156.771 56.5795 156.641 56.7983 156.515 57.0098C160.117 63.0514 163.684 69.1149 167.325 75.1331C167.829 75.9655 168.672 77.1617 169.403 77.194C173.749 77.3888 178.108 77.2904 182.817 77.2904C182.189 76.0977 181.829 75.3488 181.413 74.6327C181.327 74.4847 181.241 74.3363 181.155 74.1883C181.128 74.1883 181.101 74.1888 181.075 74.1888C178.396 74.1888 176.355 74.1508 174.455 74.066Z" fill="#385DB2"/>
<path d="M29.4387 69.6379C31.52 61.2519 33.7533 52.9035 35.9453 44.5446C36.1493 43.765 36.5493 41.8144 36.9186 41.7617C37.2293 41.8212 37.1387 41.8274 37.3053 42.3383C37.976 44.9883 38.6506 47.6379 39.3186 50.2883C40.9933 56.9316 42.6747 63.5727 44.328 70.2207C44.5893 71.2732 44.7453 72.2847 46.1827 72.2847C46.1907 72.2847 46.1987 72.2847 46.2067 72.2847C46.9987 72.2784 47.7893 72.2764 48.5813 72.2764C49.7507 72.2764 50.9213 72.2805 52.0907 72.2805C54.036 72.2805 55.9813 72.2691 57.924 72.2087C58.504 72.1904 59.224 71.427 59.5773 70.83C59.932 70.2316 59.928 69.4123 60.0493 68.6842C62.732 52.555 65.4093 36.4248 68.0907 20.2951C68.9547 15.0909 69.8346 9.88935 70.6893 4.68362C71.188 1.64455 71.1053 1.55922 67.876 1.54095C66.7 1.53415 65.524 1.53163 64.3467 1.53163C63.0947 1.53163 61.8427 1.53468 60.592 1.54042C57.5413 1.55455 57.5547 1.56442 57.0267 4.57695C55.4973 13.3014 53.9667 22.0264 52.4147 30.7472C51.9667 33.2618 51.712 34.4128 51.2253 36.9207C50.9707 37.7997 50.756 38.2254 50.552 38.2254C50.3426 38.2254 50.1467 37.7805 49.9333 36.9207C49.6253 35.6352 49.6253 35.706 49.3427 34.4155C47.3133 25.1472 45.2227 15.892 43.3227 6.59722C42.94 4.72696 42.2093 3.94508 40.6067 3.94455C40.408 3.94455 40.196 3.95709 39.968 3.98055C39.26 4.05402 38.5427 4.08682 37.824 4.08682C37.06 4.08682 36.296 4.04975 35.54 3.98469C35.3347 3.96749 35.14 3.95816 34.956 3.95816C33.3626 3.95816 32.56 4.64976 32.1027 6.55975C29.7693 16.291 27.212 25.9691 24.7253 35.6633C24.564 36.2893 24.2853 37.9988 23.94 37.9988C23.7973 37.9988 23.644 37.7055 23.4827 36.9207C22.476 33.5565 22.5 31.6962 22.1413 28.4592C21.2373 20.2842 20.3213 12.1103 19.5067 3.92642C19.3293 2.14362 18.6053 1.49829 16.988 1.49829C16.8853 1.49829 16.7773 1.50082 16.6667 1.50602C15.6373 1.55402 14.6053 1.56802 13.5733 1.56802C12.1227 1.56802 10.6706 1.54042 9.21998 1.54042C8.95732 1.54042 8.696 1.54149 8.43333 1.54362C5.6 1.56642 5.50534 1.60869 5.81468 4.35349C6.46268 10.1144 7.20534 15.865 7.90934 21.6196C9.08667 31.2456 10.26 40.8716 11.444 50.4962C12.256 57.0879 13.1573 63.6696 13.8573 70.2727C14.0307 71.9201 14.6947 72.306 16.0733 72.306C16.1307 72.306 16.1906 72.3055 16.252 72.3046C18.0653 72.265 19.8827 72.2212 21.6973 72.2212C23.156 72.2212 24.6133 72.2493 26.068 72.3316C26.1973 72.3393 26.3227 72.3431 26.444 72.3431C28.2907 72.3431 28.9827 71.4716 29.4387 69.6379Z" fill="#DF3625"/>
<path d="M104.877 45.7456C103.996 45.7664 103.113 45.7727 102.231 45.7727C100.865 45.7727 99.5013 45.7576 98.1373 45.7576C96.9653 45.7597 95.7946 45.7623 94.6226 45.7623C94.0359 45.7623 93.4479 45.7617 92.8613 45.7603C89.3333 45.7493 89.3266 45.7456 90.0893 42.1664C91.4693 35.6899 92.86 29.2164 94.24 22.7399C94.7666 20.2727 95.2 18.0191 95.768 15.5639C95.9866 14.6243 96.6866 14.466 97.5853 14.466C98.0426 14.466 98.5493 14.5071 99.0706 14.5071C99.1093 14.5071 99.1466 14.5065 99.1853 14.506C99.6306 14.5008 100.005 14.4883 100.32 14.4883C101.232 14.4883 101.624 14.5925 101.703 15.2685C103.365 24.5915 105.115 34.0409 106.767 43.3664C107.145 45.5107 106.953 45.6967 104.877 45.7456ZM72.4133 69.4555C71.8653 72.1904 71.9266 72.2524 74.596 72.2779C74.8573 72.2805 75.1186 72.2816 75.3813 72.2816C76.652 72.2816 77.9226 72.2571 79.1933 72.2571C80.1039 72.2571 81.0119 72.2696 81.9199 72.3128C81.9893 72.3164 82.0573 72.318 82.1239 72.318C83.4586 72.318 84.0253 71.6327 84.2906 70.2363C84.9186 66.9311 85.664 63.6508 86.2946 60.3456C86.5693 58.9097 87.1533 58.2425 88.6 58.2425C88.62 58.2425 88.64 58.2425 88.66 58.2425C91.7826 58.2821 94.904 58.3008 98.0266 58.3008C101.156 58.3008 104.285 58.2821 107.415 58.2445C107.435 58.2445 107.455 58.244 107.473 58.244C108.927 58.244 109.503 58.8956 109.729 60.3732C110.207 63.4945 110.884 66.5836 111.284 69.7149C111.512 71.4951 112.091 72.3409 113.687 72.3409C113.813 72.3409 113.945 72.3357 114.085 72.3253C114.975 72.2576 115.865 72.2379 116.759 72.2379C118.071 72.2379 119.387 72.2811 120.7 72.2811C120.839 72.2811 120.977 72.2805 121.116 72.2795C123.725 72.2597 123.764 72.2388 123.307 69.5597C121.732 60.3273 120.131 51.1003 118.536 41.8716C116.368 29.3253 114.2 16.7779 112.021 4.2336C111.56 1.57894 111.537 1.56174 109.009 1.54361C107.725 1.53468 106.443 1.53214 105.159 1.53214C103.233 1.53214 101.307 1.53827 99.3813 1.53827C99.3666 1.53827 99.3533 1.53827 99.3386 1.53827C97.356 1.53827 95.3719 1.53734 93.3893 1.53734C92.1493 1.53734 90.908 1.53734 89.668 1.53881C86.3546 1.54254 86.3586 1.54614 85.6666 4.91227C82.408 20.7649 79.1453 36.6164 75.8866 52.4691C74.7226 58.1295 73.5493 63.7883 72.4133 69.4555Z" fill="#DF3625"/>
<path d="M150.667 33.4107C151.752 35.2029 151.717 36.4805 150.667 38.2565C144.653 48.4248 138.769 58.6701 132.849 68.8931C132.284 69.8691 131.765 70.8732 130.997 72.2831C133.483 72.2831 135.804 72.2477 138.055 72.2477C139.659 72.2477 141.227 72.266 142.792 72.3279C142.879 72.3316 142.961 72.3331 143.044 72.3331C144.736 72.3331 145.673 71.6049 146.519 70.1488C150.169 63.8545 153.923 57.6196 157.648 51.368C158.553 49.8472 159.012 49.0873 159.471 49.0873C159.928 49.0873 160.384 49.8393 161.28 51.3415C165.009 57.5893 168.696 63.8633 172.463 70.0883C172.967 70.9212 173.809 72.1169 174.54 72.1497C176.701 72.2467 178.865 72.2712 181.075 72.2712C183.308 72.2712 185.587 72.2461 187.955 72.2461C187.327 71.0535 186.967 70.3045 186.551 69.5879C180.513 59.1956 174.504 48.7868 168.393 38.4373C167.324 36.6273 167.065 35.2097 168.325 33.3273C170.493 30.0904 172.356 26.6493 174.341 23.2915C178.205 16.7582 182.087 10.2347 185.916 3.68108C187.036 1.76388 186.921 1.58416 184.756 1.55242C184.309 1.54562 183.861 1.54362 183.413 1.54362C181.743 1.54362 180.071 1.57895 178.4 1.57895C177.141 1.57895 175.884 1.55868 174.629 1.48735C174.499 1.48002 174.372 1.47642 174.249 1.47642C172.364 1.47642 171.341 2.34668 170.42 3.99882C167.337 9.52322 164.123 14.9748 160.921 20.4321C160.221 21.6253 159.847 22.2232 159.471 22.2232C159.092 22.2232 158.712 21.6139 157.996 20.392C154.745 14.8404 151.531 9.26802 148.301 3.70495C147.676 2.62895 147.172 1.51962 145.592 1.51909C145.573 1.51909 145.555 1.51962 145.536 1.51962C143.673 1.55028 141.811 1.55922 139.896 1.55922C137.371 1.55922 134.752 1.54402 131.921 1.54402C132.789 3.11962 133.311 4.12535 133.887 5.10028C139.459 14.5493 144.988 24.0253 150.667 33.4107Z" fill="#DF3625"/>
<path d="M263.481 51.806C263.533 48.1024 261.243 45.6669 257.195 45.1237C254.465 44.7571 251.719 44.7045 248.812 44.6488C247.548 44.6243 246.285 44.5998 244.96 44.5472C244.984 45.6327 244.976 46.718 244.972 47.804C247.432 47.8571 249.888 47.942 252.312 48.2669C257.42 48.9529 260.22 52.2513 260.248 56.6669C260.327 56.6336 260.404 56.6196 260.483 56.5847C262.468 55.7196 263.449 54.156 263.481 51.806Z" fill="#385DB2"/>
<path d="M246.897 74.192L239.053 74.1795C236.841 74.1795 234.629 74.1883 232.417 74.2207L232.283 74.2216H232.269C231.359 74.2216 230.036 74.1097 229.073 73.1404C228.108 72.168 227.993 70.816 228 69.7472C228.059 61.5451 228.051 53.2014 228.043 45.1327L228.037 28.1737C228.036 21.0029 228.036 13.8322 228.041 6.66068C227.951 6.65975 227.86 6.65869 227.768 6.65709C224.851 6.62269 224.825 6.69202 224.823 9.63575C224.812 20.392 224.819 31.1483 224.819 41.9045C224.819 52.8712 224.859 63.8388 224.781 74.8049C224.768 76.7029 225.259 77.3764 227.252 77.3477C234.949 77.2352 242.651 77.4071 250.345 77.2431C255.367 77.1357 260.015 75.5972 264.384 72.992C265.028 72.6071 265.631 72.1805 266.213 71.7368C262.708 73.2169 259.131 74.0388 255.523 74.116C252.364 74.1831 249.253 74.192 246.897 74.192Z" fill="#385DB2"/>
<path d="M262.527 21.7013C262.433 20.1216 261.527 18.754 260.036 17.9494C258.583 17.1644 257.209 16.7087 256.064 16.6316C253.709 16.4727 251.271 16.4712 248.913 16.4702C247.608 16.4696 246.301 16.4686 244.957 16.4431C244.987 17.494 244.976 18.5467 244.971 19.5988C247.003 19.6035 249.033 19.6264 251.056 19.7623C252.675 19.8712 254.36 20.5227 255.811 21.306C257.971 22.4732 259.116 24.4587 259.275 26.5254C259.644 26.3399 260.021 26.1691 260.368 25.9248C261.816 24.9076 262.623 23.3284 262.527 21.7013Z" fill="#385DB2"/>
<path d="M381.129 32.5737C380.601 27.5055 379.411 23.6858 377.383 20.5535C375.539 17.705 373.283 16.4347 370.068 16.4347C368.74 16.4347 367.416 16.4399 366.095 16.4456C364.777 16.4508 363.461 16.456 362.151 16.456C361.959 16.456 361.687 16.456 361.435 16.4612C361.428 16.7212 361.427 17.0087 361.425 17.2243C361.423 17.8363 361.421 18.6445 361.42 19.5707C362.591 19.566 363.753 19.5612 364.931 19.5612C368.94 19.5612 371.76 21.3207 373.855 24.5555C376.389 28.4696 377.427 32.8764 377.9 37.4196C378.519 43.3655 377.655 49.0336 375.371 54.4029C376.024 53.7013 376.617 52.8707 377.163 51.8888C380.504 45.879 381.839 39.3811 381.129 32.5737Z" fill="#385DB2"/>
<path d="M358.508 73.954C355.38 74.0202 352.144 74.0883 348.973 74.2133L348.649 74.2201C347.344 74.2201 346.364 73.8732 345.655 73.1603C344.691 72.1915 344.564 70.9035 344.569 69.6555C344.612 61.4644 344.607 53.2722 344.6 45.0806L344.596 28.8383C344.593 21.4394 344.593 14.0404 344.6 6.64149C344.576 6.64096 344.552 6.64096 344.528 6.64042C341.413 6.60082 341.385 6.68002 341.381 9.81442C341.369 20.5779 341.376 31.3409 341.377 42.104C341.377 52.9727 341.405 63.8415 341.351 74.7103C341.341 76.4936 341.664 77.4238 343.761 77.3415C350.817 77.0634 357.887 77.0716 364.94 76.7321C370.631 76.4587 375.319 74.7149 379.147 71.7436C376.407 72.7888 373.433 73.4461 370.169 73.6035C366.276 73.7904 362.327 73.8738 358.508 73.954Z" fill="#385DB2"/>
<path d="M548.757 43.3363C547.827 38.1732 546.865 32.9727 545.905 27.7759C545.165 23.7712 544.425 19.7691 543.685 15.6936L543.416 15.6972L542.855 15.7065L542.724 15.7076H542.712C542.409 15.7076 542.109 15.6961 541.82 15.6841C541.599 15.6753 541.385 15.6664 541.181 15.6664C541.148 15.6664 541.119 15.6664 541.089 15.6669C540.784 16.9805 540.52 18.2388 540.252 19.5123C540.26 19.5497 540.283 19.5633 540.288 19.6055C541.729 27.5368 543.224 35.5472 544.677 43.5092L545.969 43.5139C546.864 43.5139 547.76 43.5071 548.655 43.4868C548.7 43.4857 548.743 43.4841 548.784 43.4831C548.776 43.4368 548.768 43.3879 548.757 43.3363Z" fill="#385DB2"/>
<path d="M520.276 74.1639C519.615 74.1701 518.955 74.1764 518.293 74.1764L517.465 74.1727C515.808 74.1571 514.5 74.1445 513.627 73.0655C512.749 71.9795 513.016 70.6712 513.355 69.0149C514.283 64.4696 515.235 59.93 516.187 55.3904L526.592 5.72734C524.472 5.79454 524.365 6.22427 523.759 9.12427C520.4 25.1675 517.036 41.2092 513.677 57.2524C512.477 62.9811 511.267 68.7076 510.096 74.4431C509.531 77.2107 509.595 77.2732 512.345 77.2993C514.863 77.3232 517.384 77.2169 519.896 77.3347C521.424 77.4065 522.053 76.7155 522.34 75.2331C522.409 74.8737 522.489 74.5169 522.561 74.1581C522.448 74.1576 522.336 74.1513 522.223 74.1513C521.573 74.1513 520.925 74.1576 520.276 74.1639Z" fill="#385DB2"/>
<path d="M558.333 74.2155C558.14 74.2295 557.955 74.2368 557.779 74.2368C555.249 74.2368 553.776 72.7805 553.401 69.9092C553.168 68.1169 552.831 66.2841 552.505 64.5117C552.26 63.1773 552.015 61.8431 551.805 60.5024C551.763 60.2305 551.716 60.0737 551.684 59.992C551.62 59.9816 551.511 59.9707 551.34 59.9707C551.339 59.9707 551.337 59.9707 551.336 59.9707C548.104 60.0081 544.871 60.0279 541.637 60.0279C538.411 60.0279 535.184 60.0081 531.919 59.9685C531.757 59.9685 531.656 59.9816 531.611 59.9816C531.603 59.9816 531.596 59.9811 531.592 59.9795C531.559 60.0431 531.492 60.2035 531.425 60.5456C531.26 61.3983 531.076 62.2461 530.899 63.0961C535.991 63.1321 541.084 63.1565 546.177 63.0972C547.719 63.0795 548.327 63.7363 548.563 65.2514C549.056 68.4103 549.752 71.5368 550.165 74.7055C550.419 76.6497 551.095 77.4936 553.053 77.3472C555.459 77.168 557.884 77.3196 560.301 77.3008C562.991 77.2805 563.029 77.2597 562.559 74.5483C562.536 74.4149 562.512 74.2821 562.488 74.1488C561.975 74.1409 561.46 74.1321 560.947 74.1321C559.927 74.1321 559.096 74.1587 558.333 74.2155Z" fill="#385DB2"/>
<path d="M421.057 16.5098C420.783 16.5098 420.509 16.5144 420.235 16.5185C419.94 16.5232 419.645 16.5279 419.351 16.5279C419.312 16.5279 419.275 16.5279 419.235 16.5279C419.239 17.5639 419.231 18.5998 419.233 19.6358C426.675 19.6363 434.117 19.6426 441.559 19.6306C444.421 19.6259 444.431 19.5993 444.448 16.6409C444.448 16.5956 444.447 16.5503 444.448 16.505C441.389 16.5087 438.332 16.5112 435.273 16.5112L421.057 16.5098Z" fill="#385DB2"/>
<path d="M423.331 45.3409H422.695L421.235 45.3368C420.901 45.3368 420.567 45.3388 420.233 45.3461C419.897 45.3535 419.539 45.3612 419.244 45.3748C419.236 45.642 419.233 45.9513 419.231 46.2123C419.224 46.9644 419.233 47.716 419.231 48.468C423.343 48.4707 423.509 48.4873 428.693 48.4503C431.352 48.4311 431.368 48.3721 431.441 45.8232C431.447 45.6617 431.44 45.4997 431.443 45.3383C430.273 45.3445 429.413 45.3472 428.64 45.3472L423.331 45.3409Z" fill="#385DB2"/>
<path d="M418.077 74.1857C414.792 74.1857 411.505 74.1827 408.22 74.1716L408.057 74.1712C407.644 74.1712 407.277 74.1764 406.949 74.1811L406.197 74.1879C405.321 74.1879 404.12 74.1879 403.236 73.2998C402.317 72.3759 402.323 71.2237 402.332 69.3155L402.335 68.4336C402.324 60.9103 402.325 53.3868 402.328 45.8628L402.329 27.644C402.328 20.6175 402.328 13.5904 402.332 6.56389C399.143 6.56642 399.116 6.61175 399.113 9.85295C399.105 20.5098 399.111 31.166 399.111 41.8221C399.111 52.3732 399.1 62.9243 399.115 73.4753C399.121 77.8425 398.777 77.2841 403.089 77.2983C411.003 77.3248 418.915 77.306 426.829 77.3055C431.999 77.3055 437.169 77.2784 442.339 77.3201C443.703 77.3311 444.527 77.0983 444.475 75.4368C444.461 75.0191 444.467 74.6008 444.459 74.1831C443.217 74.1784 441.977 74.1701 440.736 74.1701L418.077 74.1857Z" fill="#385DB2"/>
<path d="M312.004 75.0779C304.803 75.0779 298.52 72.0232 293.835 66.2451C289.537 60.944 286.768 54.6639 285.369 47.0451C283.219 35.3352 284.401 25.0269 288.951 15.6805C288.576 16.218 288.211 16.7644 287.86 17.3273C281.215 28.0035 279.887 39.5925 282.119 51.7436C283.355 58.4795 285.835 64.7133 290.188 70.0821C296.16 77.4488 304.707 79.7379 313.831 77.2201C316.507 76.4821 318.775 75.2112 320.76 73.5951C320.335 73.7426 319.916 73.9035 319.479 74.0243C316.945 74.7232 314.431 75.0779 312.004 75.0779Z" fill="#385DB2"/>
<path d="M320.768 49.0363C322.968 41.0216 323.076 32.8191 321.089 24.6565C320.252 21.2149 319.117 18.8915 317.413 17.1232C315.993 15.6497 314.152 14.8383 312.231 14.8383C310.252 14.8388 308.441 15.7035 307.132 17.2727C306.929 17.5155 306.756 17.7664 306.569 18.015C309.089 17.8592 311.684 18.7899 313.656 20.8368C315.929 23.194 317.063 26.1555 317.816 29.2477C319.876 37.7128 319.783 46.2003 317.48 54.5883C317.307 55.2201 317.101 55.8524 316.872 56.48C317.233 56.1169 317.584 55.7311 317.903 55.2784C319.139 53.5216 320.129 51.3628 320.768 49.0363Z" fill="#385DB2"/>
<path d="M492.804 19.216C492.516 18.9155 492.256 18.6352 492.035 18.454C490.845 17.4774 489.636 16.677 488.441 16.0759C486.823 15.2607 485.185 14.8478 483.576 14.8478C480.872 14.8478 478.535 16.016 476.816 18.1451C479.163 17.7868 481.691 18.1607 484.167 19.4071C485.568 20.1128 486.9 21.0196 488.115 22.0164C489.192 22.9003 491.128 25.644 492.364 24.7352C493.564 23.727 494.924 22.7248 496.215 21.6472C494.887 21.3212 493.783 20.2368 492.804 19.216Z" fill="#385DB2"/>
<path d="M483.315 74.9327C481.08 74.9327 478.989 74.753 477.103 74.3978C470.669 73.1879 465.387 69.3795 461.403 63.0789C456.419 55.1988 454.237 45.9925 454.537 34.1065C454.705 27.4977 456.087 21.5508 458.675 16.0857C453.848 23.0305 451.532 30.7388 451.317 39.1997C451.068 49.0863 452.481 58.5545 457.885 67.0983C461.307 72.5076 465.947 76.3587 472.32 77.5576C475.184 78.0962 478.208 78.1488 481.129 77.9607C485.924 77.653 489.9 76.1628 493.048 73.5472C491.011 74.2445 488.788 74.6759 486.389 74.83C485.331 74.8983 484.296 74.9327 483.315 74.9327Z" fill="#385DB2"/>
<path d="M491.435 48.1087C491.389 48.0748 491.356 48.0477 491.376 48.0436C491.003 48.0321 490.701 48.0269 490.451 48.0269C489.876 48.0269 489.575 48.0545 489.221 48.0863C488.755 48.1279 488.212 48.1774 487.084 48.1983C486.773 48.204 486.499 48.2087 486.255 48.2087C482.536 48.2087 482.504 45.9155 482.472 43.6978C482.453 42.3566 482.465 41.0149 482.471 39.6737C482.356 39.6743 482.261 39.6748 482.139 39.6754C479.279 39.694 479.271 39.7107 479.249 42.6967C479.235 44.7029 479.224 46.7092 479.253 48.7155C479.289 51.354 479.308 51.3743 481.911 51.3253C484.339 51.2795 483.873 51.0977 486.296 51.1707C486.927 51.1899 487.955 51.8316 488.088 52.3649C488.453 53.8295 488.44 55.9139 487.995 58.0035C491.059 56.0988 491.965 50.8879 491.435 48.1087Z" fill="#385DB2"/>
<path d="M261.249 58.3431C259.643 59.044 257.847 59.5571 256.108 59.6581C254.371 59.7587 252.629 59.7769 250.887 59.7769C249.888 59.7769 248.888 59.7707 247.889 59.7707C246.945 59.7707 246.003 59.7764 245.06 59.7972C245.017 59.7983 244.975 59.7983 244.933 59.7983C243.551 59.7983 242.977 59.2701 243.031 57.7988C243.113 55.4863 243.052 53.1686 243.052 50.853C243.053 48.7478 243.089 46.642 243.041 44.5379C243.012 43.2831 243.469 42.6196 244.707 42.6196C244.759 42.6196 244.813 42.6207 244.868 42.6227C249.065 42.8046 253.304 42.6664 257.449 43.2227C262.641 43.9201 265.463 47.3087 265.4 51.8331C265.357 54.8759 263.997 57.1445 261.249 58.3431ZM253.367 29.7822C252.62 29.8243 251.872 29.8374 251.123 29.8374C249.928 29.8374 248.732 29.804 247.537 29.804C246.844 29.804 246.152 29.8155 245.461 29.8503C245.356 29.856 245.255 29.8587 245.159 29.8587C243.372 29.8587 242.904 28.953 243.024 27.2112C243.14 25.5322 243.048 23.8383 243.048 22.1508C243.053 20.253 243.093 18.3535 243.039 16.4565C243.003 15.2029 243.373 14.5207 244.721 14.5207C244.752 14.5207 244.781 14.5212 244.812 14.5216C248.607 14.6035 252.412 14.4633 256.193 14.718C257.812 14.8269 259.497 15.4784 260.948 16.2617C265.411 18.6727 265.639 24.5639 261.471 27.494C259.045 29.1997 256.211 29.6207 253.367 29.7822ZM271.171 36.804C269.828 35.9712 270.067 35.3555 271.092 34.4607C273.496 32.3649 275.685 30.0738 276.591 26.892C278.548 20.0008 277.256 10.8045 268.857 5.63882C265.577 3.62122 262.047 2.17215 258.192 2.05189C249.767 1.78882 241.336 1.71388 232.905 1.61282C232.671 1.61028 232.455 1.60815 232.255 1.60815C229.984 1.60815 229.963 1.88469 229.96 4.59149C229.949 15.3478 229.956 26.1035 229.956 36.8598C229.956 47.827 229.996 58.794 229.919 69.7607C229.905 71.6196 230.376 72.304 232.269 72.304C232.309 72.304 232.349 72.304 232.389 72.3035C234.611 72.2707 236.833 72.2617 239.053 72.2617C241.668 72.2617 244.283 72.2738 246.897 72.2738C249.76 72.2738 252.62 72.2597 255.483 72.1983C260.504 72.0909 265.152 70.5524 269.521 67.9477C281.139 61.0207 282.701 43.9576 271.171 36.804Z" fill="#DF3625"/>
<path d="M378.839 52.8207C376.44 57.1352 373.077 59.2352 367.825 59.2352C365.777 59.2352 363.515 59.2269 361.343 59.2269C359.515 59.2269 359.459 58.5254 359.475 56.805C359.537 50.1546 359.477 23.7607 359.508 17.2155C359.52 14.6045 359.572 14.5383 362.151 14.5383C364.775 14.5383 367.415 14.5169 370.068 14.5169C374.077 14.5169 376.897 16.2764 378.992 19.5112C381.527 23.4254 382.564 27.8322 383.037 32.3754C383.791 39.6134 382.383 46.4472 378.839 52.8207ZM372.113 2.05815C364.641 1.68629 357.149 1.69095 349.664 1.59615C349.408 1.59308 349.172 1.59042 348.956 1.59042C346.547 1.59042 346.523 1.89402 346.519 4.77016C346.507 15.5331 346.513 26.2967 346.515 37.0598C346.515 47.9284 346.543 58.7972 346.488 69.6655C346.479 71.3764 346.775 72.3019 348.649 72.3019C348.729 72.3019 348.812 72.3003 348.899 72.2972C355.955 72.0185 363.024 72.0273 370.077 71.6879C380.867 71.1685 388.141 65.4977 392.531 55.8284C394.785 50.8617 395.815 45.5946 396.149 40.2008C396.697 31.3394 395.745 22.716 391.544 14.6978C387.432 6.85029 380.943 2.49775 372.113 2.05815Z" fill="#DF3625"/>
<path d="M548.699 45.404C547.789 45.4248 546.879 45.4316 545.969 45.4316C544.563 45.4316 543.156 45.416 541.751 45.416C540.543 45.418 539.335 45.4207 538.128 45.4207C537.523 45.4207 536.917 45.4201 536.312 45.4185C532.675 45.4076 532.668 45.404 533.455 41.7816C534.876 35.2273 536.309 28.6759 537.733 22.1216C538.276 19.6253 538.723 17.3446 539.309 14.8598C539.533 13.9087 540.256 13.7488 541.181 13.7488C541.652 13.7488 542.175 13.7899 542.712 13.7899C542.752 13.7899 542.791 13.7893 542.831 13.7893C543.289 13.7836 543.676 13.7712 544 13.7712C544.941 13.7712 545.344 13.8764 545.425 14.5607C547.14 23.9956 548.944 33.5587 550.645 42.9961C551.036 45.166 550.839 45.3545 548.699 45.404ZM562.779 41.4836C560.543 28.7863 558.309 16.0883 556.063 3.39309C555.587 0.706556 555.563 0.688815 552.957 0.671215C551.632 0.661748 550.307 0.659219 548.981 0.659219C546.999 0.659219 545.016 0.665486 543.033 0.665486C543.017 0.665486 543.004 0.665486 542.989 0.665486C540.949 0.665486 538.909 0.66389 536.871 0.66389C535.587 0.66389 534.304 0.664423 533.02 0.666023C529.604 0.669623 529.609 0.673216 528.896 4.08002C525.537 20.1232 522.173 36.1649 518.813 52.2076C517.615 57.9368 516.404 63.6628 515.233 69.3983C514.668 72.1664 514.732 72.2289 517.483 72.2549C517.753 72.2576 518.023 72.2587 518.293 72.2587C519.603 72.2587 520.913 72.2336 522.223 72.2336C523.16 72.2336 524.097 72.2461 525.033 72.2904C525.105 72.2936 525.175 72.2951 525.243 72.2951C526.62 72.2951 527.204 71.6019 527.477 70.1888C528.125 66.8436 528.892 63.5243 529.543 60.1795C529.825 58.7259 530.428 58.0508 531.919 58.0508C531.94 58.0508 531.96 58.0508 531.981 58.0508C535.2 58.0904 538.419 58.1097 541.637 58.1097C544.863 58.1097 548.089 58.0904 551.315 58.0529C551.335 58.0529 551.355 58.0529 551.375 58.0529C552.872 58.0529 553.467 58.7117 553.7 60.2071C554.193 63.366 554.889 66.492 555.303 69.6612C555.537 71.4623 556.135 72.3191 557.779 72.3191C557.909 72.3191 558.047 72.3139 558.191 72.3029C559.107 72.2347 560.027 72.2144 560.947 72.2144C562.299 72.2144 563.655 72.2581 565.007 72.2581C565.151 72.2581 565.295 72.2576 565.437 72.2565C568.128 72.2363 568.167 72.2155 567.696 69.504C566.073 60.1607 564.423 50.8227 562.779 41.4836Z" fill="#DF3625"/>
<path d="M449.612 70.3925C449.512 67.23 449.557 64.0623 449.593 60.8977C449.607 59.7019 449.091 59.2081 447.949 59.2081C447.929 59.2081 447.909 59.2087 447.889 59.2087C447.28 59.218 446.671 59.2207 446.061 59.2207C444.772 59.2207 443.481 59.2071 442.192 59.2071C441.711 59.2065 441.228 59.2066 440.747 59.2066C437.08 59.2066 433.412 59.2092 429.745 59.2092C426.613 59.2092 423.483 59.2071 420.351 59.2008C417.348 59.1946 417.329 59.1707 417.312 56.3259C417.291 52.9497 417.285 49.5732 417.313 46.1967C417.335 43.4945 417.361 43.4904 420.192 43.429C420.539 43.4212 420.887 43.4191 421.235 43.4191C421.721 43.4191 422.208 43.4232 422.695 43.4232C422.704 43.4232 422.715 43.4232 422.724 43.4232C422.933 43.4232 423.136 43.4232 423.331 43.4232C426.061 43.4232 427.276 43.4295 428.64 43.4295C429.857 43.4295 431.192 43.4243 433.831 43.4055C436.489 43.3868 436.505 43.3273 436.579 40.7789C436.619 39.4081 436.591 38.0358 436.591 36.6644C436.591 30.4764 436.591 30.477 430.476 30.4764C424.779 30.4759 425.384 30.4748 419.687 30.4716C419.68 30.4716 419.675 30.4716 419.669 30.4716C419.596 30.4716 419.524 30.4716 419.452 30.4716C418.344 30.4716 417.297 30.4212 417.308 28.7764C417.337 24.556 417.333 20.3357 417.316 16.1155C417.311 15.0727 417.767 14.6035 418.759 14.6035C418.787 14.6035 418.813 14.6035 418.841 14.6046C419.011 14.6087 419.181 14.6103 419.351 14.6103C419.919 14.6103 420.488 14.592 421.057 14.592C421.7 14.592 422.344 14.592 422.987 14.592C427.083 14.592 431.179 14.5936 435.273 14.5936C439.081 14.5936 442.888 14.592 446.696 14.5858C449.559 14.5811 449.568 14.555 449.585 11.5967C449.599 9.27535 449.597 6.95402 449.585 4.63309C449.569 1.54149 449.563 1.52122 446.481 1.51962C439.993 1.51549 433.504 1.51335 427.016 1.51335C420.527 1.51335 414.037 1.51549 407.549 1.51855C404.271 1.52069 404.253 1.53789 404.251 4.80869C404.243 15.465 404.248 26.1216 404.247 36.7779C404.247 47.329 404.237 57.88 404.252 68.4311C404.257 71.9462 404.036 72.2701 406.197 72.2701C406.687 72.2701 407.296 72.2535 408.057 72.2535C408.113 72.2535 408.169 72.254 408.227 72.254C411.509 72.2649 414.795 72.268 418.077 72.268C422.708 72.268 427.336 72.2617 431.965 72.2612C434.889 72.2612 437.813 72.2524 440.736 72.2524C442.983 72.2524 445.229 72.2576 447.476 72.2759C447.504 72.2759 447.533 72.2759 447.563 72.2759C448.875 72.2759 449.663 72.018 449.612 70.3925Z" fill="#DF3625"/>
<path d="M322.617 49.5436C321.96 51.9393 320.895 54.3581 319.471 56.3821C317.548 59.1155 314.931 60.4603 312.319 60.4603C309.529 60.4603 306.747 58.9289 304.815 55.9212C302.365 52.1065 301.363 47.7664 300.828 43.3565C300.153 37.806 300.075 28.6196 302.393 22.0899C302.932 19.9264 304.212 17.7789 305.66 16.044C307.405 13.9508 309.804 12.9212 312.229 12.9207C314.581 12.9207 316.957 13.8879 318.793 15.792C321.067 18.1493 322.2 21.1112 322.953 24.2029C325.013 32.6685 324.92 41.156 322.617 49.5436ZM338.44 36.7639C338.337 34.868 338.315 32.9644 338.12 31.0779C337.279 22.9133 334.539 15.4555 329.364 9.04041C324.805 3.39041 319.197 0.65921 312.775 0.65921C310.655 0.65921 308.445 0.956541 306.157 1.54507C300.219 3.07161 296.153 7.21068 292.997 12.2831C286.352 22.9592 285.024 34.5483 287.256 46.6988C288.492 53.4352 290.972 59.6691 295.325 65.0373C299.745 70.4888 305.575 73.1603 312.004 73.1603C314.263 73.1603 316.596 72.8305 318.968 72.1759C325.117 70.4789 329.215 66.0893 332.308 60.7212C336.576 53.3164 338.368 45.2612 338.44 36.7639Z" fill="#DF3625"/>
<path d="M511.973 44.0623V38.2836C511.973 35.1341 512.549 34.6212 509.503 34.6212L503.643 34.6221C503.556 34.6201 503.496 34.5983 503.405 34.5983C503.4 34.5983 503.393 34.5983 503.388 34.5983C502.668 34.6216 501.947 34.6144 501.227 34.6227L493.011 34.6238V34.6273C491.548 34.6259 490.811 34.6207 489.887 34.6207C489.225 34.6207 488.468 34.6232 487.276 34.6311C484.416 34.6498 484.408 34.666 484.387 37.6524C484.372 39.6587 484.361 41.6649 484.389 43.6707C484.423 46.0087 484.441 46.2909 486.255 46.2909C486.488 46.2909 486.751 46.2868 487.048 46.2811C489.077 46.2431 489.085 46.1092 490.451 46.1092C490.717 46.1092 491.037 46.1144 491.433 46.1264C492.064 46.1456 493.092 46.7873 493.225 47.3207C494.117 50.892 492.908 58.1587 488.084 60.1685C486.869 60.6748 485.585 60.9112 484.3 60.9112C480.439 60.9112 476.553 58.7795 474.409 55.4207C473.237 53.5836 472.324 51.4847 471.751 49.3806C469.807 42.2467 469.677 34.9603 470.967 27.729C471.512 24.6691 472.547 21.5529 474.039 18.8347C476.167 14.9571 479.699 12.93 483.576 12.93C485.444 12.93 487.393 13.4008 489.304 14.3623C490.705 15.068 492.037 15.9753 493.252 16.9721C494.179 17.7331 495.744 19.8727 496.949 19.8727C497.144 19.8727 497.329 19.8169 497.501 19.6909C499.6 17.9289 502.217 16.2196 504.015 14.0087C505.173 12.953 504.985 11.7123 503.896 10.366C502.751 8.95029 501.236 7.54402 500.576 6.98269C495.829 2.94202 489.581 0.666426 483.345 0.666026C476.263 0.665493 469.196 3.60188 464.361 10.2243C459.14 17.3773 456.677 25.3644 456.455 34.155C456.205 44.042 457.619 53.5103 463.023 62.054C466.444 67.4633 471.084 71.3144 477.457 72.5128C479.365 72.8722 481.344 73.0149 483.315 73.0149C484.304 73.0149 485.291 72.979 486.267 72.9164C495.007 72.3546 501.136 68.0087 504.196 59.6972C505.611 55.8565 506.025 50.8931 506.053 46.0696L510.823 46.042C512.092 46.042 511.973 45.1445 511.973 44.0623Z" fill="#DF3625"/>
</svg>
