<svg width="96" height="57" viewBox="0 0 96 57" fill="none" xmlns="http://www.w3.org/2000/svg">
<path d="M95.2771 0.945496C95.2771 19.3179 95.2771 37.6939 95.2771 56.0663C63.687 51.5704 31.6194 51.5704 0.0286865 56.0663C0.0286865 37.6928 0.0286865 19.3204 0.0286865 0.945496C1.17655 1.05483 2.32455 1.1131 3.47295 1.26577C32.799 5.12363 62.5068 5.12363 91.8334 1.26577C92.9818 1.1131 94.1303 1.05483 95.2771 0.945496Z" fill="#DF3625"/>
<path d="M59.6079 28.6236C59.6079 33.0079 59.6151 37.3918 59.6036 41.7762C59.5995 43.185 59.5766 43.1912 58.1516 43.2084C57.2194 43.2199 56.2803 43.1366 55.3568 43.2294C54.2194 43.345 54.0022 42.8439 54.0188 41.8204C54.0735 38.548 54.0448 35.2736 54.0364 32.0002C54.0318 30.3308 54.0203 30.3127 52.4407 30.3048C49.4688 30.2903 46.4974 30.2918 43.526 30.3048C41.9771 30.3111 41.9506 30.3294 41.9418 31.8491C41.9219 35.0636 41.9432 38.2788 41.9292 41.4934C41.9214 43.1964 41.9036 43.2007 40.1766 43.2095C39.1276 43.2147 38.0782 43.185 37.0303 43.2147C36.3527 43.233 36.0755 42.936 36.0964 42.2814C36.1099 41.8726 36.0907 41.4636 36.0907 41.0532C36.0907 32.6955 36.0907 24.336 36.0912 15.9767C36.0912 15.5679 36.1047 15.159 36.1011 14.7502C36.0938 14.0767 36.4396 13.8319 37.0839 13.845C38.1902 13.8674 39.2979 13.8346 40.4047 13.8502C41.8698 13.871 41.8995 13.8803 41.9235 15.3032C41.9536 17.2319 41.9323 19.16 41.9339 21.0898C41.9344 21.6158 41.9287 22.1418 41.936 22.6679C41.961 24.3059 41.9631 24.3188 43.5584 24.3231C46.5886 24.3319 49.6194 24.2892 52.6479 24.3464C53.6902 24.3658 54.0938 24.086 54.0615 22.9751C53.9875 20.4647 54.0318 17.9491 54.0418 15.436C54.0474 13.8726 54.0594 13.8475 55.5235 13.8543C56.7959 13.8606 58.0678 13.935 59.3391 13.9794C59.4292 15.2944 59.5828 16.6095 59.5964 17.9256C59.6323 21.4923 59.6088 25.0574 59.6079 28.6236Z" fill="#FCF9D9"/>
<path d="M20.5599 19.3803C20.5599 19.3751 20.5599 19.3699 20.5599 19.3647C19.4536 19.3647 18.3443 19.4168 17.2422 19.3491C16.237 19.2876 15.7344 19.5314 15.8074 20.6824C15.8984 22.1366 15.874 23.6027 15.814 25.0611C15.774 26.0288 16.0886 26.4179 17.0954 26.3918C19.3063 26.336 21.5203 26.4116 23.7312 26.3516C24.4708 26.3308 25.2339 26.1434 25.9318 25.8855C27.2803 25.3882 27.8318 24.496 27.835 23.0704C27.8386 20.9308 26.5459 19.5663 24.2266 19.396C23.0104 19.3059 21.7823 19.3803 20.5599 19.3803ZM9.85362 28.5064C9.85269 24.1251 9.84536 19.7423 9.85736 15.3606C9.86202 13.8256 9.88496 13.8059 11.3886 13.8032C15.873 13.797 20.3584 13.7475 24.8412 13.8267C29.3287 13.9064 32.9027 17.2032 33.3667 21.535C33.9251 26.7398 31.4527 30.6314 26.774 31.7683C25.774 32.0106 24.7 31.9882 23.6588 32.0038C21.4459 32.0376 19.2318 32.048 17.0203 32.0002C16.1063 31.9803 15.8031 32.3127 15.8156 33.2147C15.8547 36.0183 15.835 38.8231 15.826 41.6278C15.8208 43.198 15.8115 43.2007 14.1818 43.2095C13.1918 43.2163 12.1959 43.1434 11.2131 43.2294C10.1099 43.324 9.82549 42.8699 9.83549 41.8267C9.87922 37.3866 9.85416 32.9464 9.85362 28.5064Z" fill="#FCF9D9"/>
<path d="M63.7292 28.3346C63.7287 24.0064 63.7208 19.6783 63.7328 15.3516C63.7375 13.824 63.761 13.8188 65.2766 13.8022C66.2088 13.7918 67.149 13.8726 68.073 13.7814C69.2058 13.6704 69.4246 14.1704 69.4188 15.1955C69.3812 21.8622 69.3995 28.5288 69.4006 35.1964C69.4006 35.6054 69.4355 36.0183 69.3954 36.4231C69.2974 37.3986 69.686 37.7683 70.6807 37.7486C73.3031 37.7007 75.9271 37.733 78.55 37.7346C80.474 37.7346 82.3984 37.759 84.3214 37.7251C85.1146 37.7111 85.5068 37.9376 85.4646 38.81C85.412 39.9179 85.4068 41.034 85.4667 42.1418C85.5136 43.0116 85.1531 43.2319 84.3438 43.224C80.9631 43.1903 77.5812 43.2111 74.2006 43.2111C71.1694 43.2111 68.1364 43.1668 65.1068 43.2346C64.0282 43.2579 63.699 42.9116 63.7104 41.8439C63.7568 37.3412 63.7298 32.8371 63.7292 28.3346Z" fill="#FCF9D9"/>
</svg>
